<svg version="1.1" xmlns="http://www.w3.org/2000/svg" viewBox="0 0 719.0799713134766 399.29780092835426" width="719.0799713134766" height="399.29780092835426">
  <!-- svg-source:excalidraw -->
  
  <defs>
    <style class="style-fonts">
      @font-face {
        font-family: "Virgil";
        src: url("https://excalidraw.com/Virgil.woff2");
      }
      @font-face {
        font-family: "Cascadia";
        src: url("https://excalidraw.com/Cascadia.woff2");
      }
    </style>
  </defs>
  <rect x="0" y="0" width="719.0799713134766" height="399.29780092835426" fill="#ffffff"></rect><g stroke-linecap="round" transform="translate(472 46.91673338670938) rotate(0 40.006405124099274 17.086068855084065)"><path d="M0 0 C0 0, 0 0, 0 0 M0 0 C0 0, 0 0, 0 0 M-0.05 6.98 C0.13 5.83, 1.3 4.56, 4.3 0.12 M-0.17 6.07 C1.51 4.41, 2.78 3.6, 4.81 -0.02 M-0.24 10.59 C1.78 8.33, 6.33 5.11, 9.27 -1.42 M-0.65 12.08 C4.22 8.74, 6.52 3.54, 11.19 -0.83 M-1.75 16.59 C1.7 14.95, 7.67 11.62, 16.69 -1.55 M-0.12 18.3 C2.92 15.06, 7.92 10.13, 15.91 0.88 M-1.67 24.38 C5.77 17.49, 11.78 10.55, 21.58 0.2 M0.55 24.9 C7.24 16.22, 15.33 7.02, 20.83 0.17 M0.81 31.87 C9.3 20.84, 18.86 11.76, 27.18 2.06 M0.83 30.19 C8.07 20.89, 16.65 9.73, 26.9 0.5 M1.04 33.38 C9.15 26.27, 17.84 13.7, 32.88 1.42 M0.57 36.28 C10.62 23.54, 20.85 12.03, 31.48 -0.93 M4.89 35.53 C14.14 27.58, 21.71 18.89, 38.62 -1.52 M6.84 34.37 C17.87 20.47, 30.63 7.98, 36.2 -0.29 M12.86 34.57 C19 25.95, 30.83 15.3, 44.18 0.27 M11.08 35.08 C20.44 24.55, 31.44 13.72, 43.23 -0.17 M17.22 32.99 C29.03 21.32, 39.99 10.63, 45.87 0.61 M17.22 34.06 C28.38 21.75, 40.07 8.91, 47.01 -0.56 M22.8 36.15 C35.74 20.64, 45.53 8.17, 51.84 0.14 M21.44 35.57 C32.74 23.41, 45.69 8.96, 52.52 0.14 M26.23 36.16 C34.84 27.41, 44.86 15.57, 58.78 -1.67 M28.48 35.45 C40.5 20.6, 52.48 9.04, 59.01 0.12 M32.71 36 C44.89 21.64, 56.1 8.21, 63.22 1.43 M33.35 36.16 C42.58 26.09, 50.06 15.31, 64.29 -0.83 M39.27 33.43 C44.97 26.06, 54.39 20.05, 70.22 -1.47 M39.57 35.72 C49.22 23.33, 58.61 13.54, 68.41 -0.31 M43.47 37.04 C53.75 19.93, 68.34 6.96, 72.68 1.52 M42.99 34.78 C56.33 20.7, 67.23 6.96, 73.99 -0.38 M50.7 34.2 C54.32 27.47, 61.53 20.55, 80.05 1.11 M49.94 35.56 C61.73 21.19, 71.98 8.32, 79.91 -0.44 M54.92 35.13 C61.9 25.21, 72.77 16.05, 82.96 1.83 M55.06 34.87 C65.63 23.24, 76.09 10.21, 82.95 2.67 M57.23 33.6 C68.83 28.3, 75.66 17.87, 83.91 7.27 M58.87 35.89 C67.8 26.6, 74.91 16.65, 83.46 8.97 M65.93 35.19 C69.93 26.6, 80.69 20.91, 81.17 15.79 M64.77 35.36 C70.4 28.56, 76.44 22.06, 82.35 14.05 M68.53 33.53 C71.41 31.64, 75.13 29, 83.58 22.35 M70.12 34.89 C74.89 31.76, 77.57 27.26, 82.73 19.83 M74.86 35.1 C78.1 33.26, 79.13 30.29, 82.6 26.77 M75.65 34.88 C78.09 31.91, 81.48 28.62, 82.87 26.3" stroke="#fab005" stroke-width="0.5" fill="none"></path><path d="M-1.23 1.62 C30.3 -0.08, 63.62 0.53, 79.5 -1.2 M-0.5 -0.17 C22.12 -0.22, 44.66 0.89, 79.03 0.12 M80.24 -0.89 C79.65 7.42, 81.81 14.22, 79.59 32.35 M80.57 0.09 C79.47 7.66, 79.42 14.74, 80.62 34.51 M80.27 32.41 C58.53 34.27, 37.64 36.25, -0.26 33.59 M80.08 34.4 C49.16 34.29, 16.53 33.66, -0.89 34.55 M-0.06 33.07 C0.08 26.4, 1.68 18.22, -0.25 -1.28 M0.57 34.65 C-1 21.76, 0.18 9.96, 0.22 -0.2" stroke="#000000" stroke-width="1" fill="none"></path></g><g transform="translate(497.34294534626724 53.82652168246227) rotate(0 14.663459777832031 10.17628055933119)"><text x="14.663459777832031" y="0" font-family="Virgil, Segoe UI Emoji" font-size="16.2820488949299px" fill="#000000" text-anchor="middle" style="white-space: pre;" direction="ltr" dominant-baseline="text-before-edge">KEY</text></g><g stroke-linecap="round" transform="translate(552.0128102481985 46.5) rotate(0 40.006405124099274 17.086068855084065)"><path d="M0 0 C0 0, 0 0, 0 0 M0 0 C0 0, 0 0, 0 0 M-0.31 5.8 C1.96 4.78, 3.89 1.55, 5.75 1.16 M-0.52 6.33 C1.73 4.17, 3.9 1.54, 5.07 0.12 M-0.68 11.12 C3.53 10.21, 7.25 6.21, 10.48 -0.91 M0.77 11.62 C4.16 7.3, 7.39 3.32, 11.37 0.52 M-1.86 17.49 C7.86 13.35, 12.98 3.91, 16.16 2.13 M-0.14 17.71 C4.07 14.42, 7.49 7.73, 16.22 -0.38 M-1.18 23.9 C3.36 17.84, 10.25 11.82, 20.51 -1.98 M-0.55 25.03 C6.46 17.73, 10.47 11.82, 21.12 0.01 M-1.5 31.53 C10.03 21.66, 18.75 9.74, 25.13 0.62 M-0.74 29.62 C9.74 19.88, 18.17 8.97, 27.13 0.11 M1.59 35.18 C13.03 22.84, 22.57 13.06, 32.11 0.19 M1.68 35.76 C10.98 21.78, 23.82 11.17, 32.36 0.13 M7.65 35.35 C16.95 23.22, 29.86 10.73, 36.71 -0.82 M7.04 35.11 C18.07 22.02, 27.64 9.06, 37.86 1.17 M11.5 35.52 C18.5 27.46, 25.32 18.95, 42.64 0.22 M10.73 35.07 C19.93 24.6, 28.34 15.53, 41.94 0.23 M16.36 34.82 C27.61 22.14, 38.99 13.57, 46.8 2.15 M17.27 34.38 C25.38 25.48, 35.21 15.84, 47.84 -0.77 M22.6 36.59 C32.03 23.73, 39.71 14.55, 54.5 -0.02 M22.17 34.73 C32.35 22.99, 42.95 12.08, 54.05 -0.01 M27.07 36.34 C36.11 22.09, 46.39 11.41, 56.27 0.92 M28.17 35.67 C36.81 23.23, 46.3 12.8, 58 -0.76 M31.78 33.76 C40.35 26.31, 47.28 17.03, 63.07 0.34 M32.95 35.69 C41.33 26.19, 49.08 16.87, 64.36 -0.38 M39.19 36.75 C48.48 25.21, 53.33 15.15, 67.03 1.82 M39.44 35.16 C49.27 23.43, 58.1 12.38, 68.76 0.66 M44.93 33.39 C54.11 24.26, 62.43 14.45, 72.74 1.13 M43.5 35.39 C52.16 25.36, 58.32 17.89, 74.05 -0.2 M49.09 35.93 C60.74 22.4, 71.69 7.21, 77.96 -1.77 M48.24 35.56 C56.73 26.42, 64.42 17.48, 80.06 -0.58 M52.94 36.83 C63.88 22.24, 72.69 11.48, 82.28 4.26 M53.73 35.78 C63.6 24.81, 74.09 12.7, 83.19 2.76 M57.52 37.48 C66.21 26.98, 75 18.36, 81.74 6.8 M58.61 34.81 C64.21 28.11, 69.99 21.75, 82.1 8.27 M63.7 36.44 C71.82 29.14, 77.24 20.39, 80.83 13.61 M65.09 35.31 C68.34 30.83, 73.36 24.84, 82.69 14.23 M68.18 33.75 C75.77 30.28, 77.83 27.04, 83.2 22.37 M70.03 35.1 C74.39 30.93, 79.36 25.83, 83.77 19.63 M74.72 35.38 C78.55 33.01, 81.42 28.61, 83.22 25.81 M74.94 35.01 C77.4 32.7, 79.81 29.59, 82.37 27.11" stroke="#868e96" stroke-width="0.5" fill="none"></path><path d="M0.8 1.44 C26.98 1.62, 55.28 -0.38, 79.86 -0.19 M-0.92 0.86 C19.84 0.68, 41.27 1.17, 79.81 0.78 M80.05 1.39 C79.99 12.03, 78.76 24.67, 81.28 34.21 M80.82 -0.06 C80.41 7.57, 79.2 16.29, 80.88 34.32 M80.51 33.69 C48.18 33.78, 17.11 34.82, 1 35.29 M80.93 33.3 C50.28 33.63, 21.32 33.8, 0.82 34.17 M-0.07 32.75 C-0.29 24.96, -0.15 17.97, 1.12 -1.48 M-0.31 34.79 C0.51 26.05, 0.79 16.9, -0.73 0.66" stroke="#000000" stroke-width="1" fill="none"></path></g><g transform="translate(566.3195159704424 53.40978829575289) rotate(0 25.69969940185547 10.17628055933119)"><text x="25.69969940185547" y="0" font-family="Virgil, Segoe UI Emoji" font-size="16.2820488949299px" fill="#000000" text-anchor="middle" style="white-space: pre;" direction="ltr" dominant-baseline="text-before-edge">VALUE</text></g><g stroke-linecap="round"><g transform="translate(535.2436787797128 140.29780092835426) rotate(0 0.8374190272875239 -25.75204932163389)"><path d="M0.59 0.4 C1.26 -17.43, 2.92 -33.91, -0.15 -51.91 M0.78 0 C1.44 -13.3, 0.31 -26.14, 1.82 -51.31" stroke="#000000" stroke-width="1" fill="none"></path></g><g transform="translate(535.2436787797128 140.29780092835426) rotate(0 0.8374190272875239 -25.75204932163389)"><path d="M10.21 -26.55 C7.72 -35.38, 6.22 -42.92, 0 -52.1 M10.41 -26.95 C8.71 -33.58, 5.25 -39.83, 1.97 -51.5" stroke="#000000" stroke-width="1" fill="none"></path></g><g transform="translate(535.2436787797128 140.29780092835426) rotate(0 0.8374190272875239 -25.75204932163389)"><path d="M-7.27 -27.23 C-3.92 -35.98, 0.41 -43.29, 0 -52.1 M-7.08 -27.64 C-4.47 -34.26, -3.63 -40.35, 1.97 -51.5" stroke="#000000" stroke-width="1" fill="none"></path></g></g><mask></mask><g stroke-linecap="round"><g transform="translate(568.8952852848904 89.00000000000006) rotate(0 0.04808087904314107 25.069367727185153)"><path d="M0.42 -1.09 C1.4 15.37, 0.88 29.2, -0.3 49.88 M0.98 0.46 C-0.27 12.32, -0.92 23.24, -0.89 51.23" stroke="#000000" stroke-width="1" fill="none"></path></g><g transform="translate(568.8952852848904 89.00000000000006) rotate(0 0.04808087904314107 25.069367727185153)"><path d="M-8.89 26.45 C-5.21 35.28, -3.24 41.51, -0.9 50.81 M-8.33 27.99 C-7.53 33.79, -6.2 38.67, -1.48 52.16" stroke="#000000" stroke-width="1" fill="none"></path></g><g transform="translate(568.8952852848904 89.00000000000006) rotate(0 0.04808087904314107 25.069367727185153)"><path d="M8.31 26.57 C7.08 35.43, 4.13 41.63, -0.9 50.81 M8.87 28.12 C5.76 33.92, 3.18 38.77, -1.48 52.16" stroke="#000000" stroke-width="1" fill="none"></path></g></g><mask></mask><g transform="translate(649 54) rotate(0 26.60997772216797 12.5)"><text x="0" y="0" font-family="Virgil, Segoe UI Emoji" font-size="20px" fill="#000000" text-anchor="start" style="white-space: pre;" direction="ltr" dominant-baseline="text-before-edge">HEAD</text></g><g stroke-linecap="round" transform="translate(18.484349258649104 98.87808896210873) rotate(0 55.14827018121912 19.938220757825377)"><path d="M0 0 C0 0, 0 0, 0 0 M0 0 C0 0, 0 0, 0 0 M0.19 6.19 C1.35 4.44, 2.43 3.87, 4.33 -0.2 M-0.11 6.17 C1.32 4.25, 3.36 2.68, 4.7 0.6 M-0.49 10.53 C3.9 7.64, 7.3 1.64, 9.7 1.08 M-0.6 11.33 C3.22 8.41, 4.85 5.57, 11.03 -0.34 M-0.25 20.34 C7.16 13.7, 12.31 4.66, 15.04 -1.08 M0.01 17.45 C6.33 11.22, 10.67 6.6, 16.46 -0.24 M0.07 25.78 C5.74 17.56, 10.48 15.17, 20.38 -0.34 M1.13 24.88 C6.79 15.35, 14.11 5.94, 21.23 0.81 M1.52 29.97 C9.62 19.1, 18.73 7.16, 27.01 -0.22 M-0.84 29.53 C7.91 21.68, 15.08 12.3, 25.38 0.96 M-0.91 35.38 C9.56 22.81, 20.88 12.63, 32.88 -0.33 M0.27 37.11 C11.17 23.55, 25.47 8.29, 32.09 0.34 M2.88 42.12 C8.45 33.38, 15.77 23.53, 37.13 -0.08 M0.54 40.74 C13.13 27.83, 23.33 15.3, 37.48 -0.01 M6.16 40.26 C17.97 29.81, 30.05 17.17, 43.35 1.27 M6.96 42.21 C17.46 26.49, 30.4 14.36, 42.9 -1.14 M12.09 39.59 C21.15 28.85, 29.48 20.16, 48.3 0.68 M11.21 40.73 C21.89 30.39, 30.88 19.45, 46.67 0.81 M16.91 41.56 C25.85 28.23, 35.15 19.16, 53.19 -0.71 M17.85 41.91 C25.04 31.41, 34.87 22.45, 52.33 -0.42 M21.35 39.8 C31.56 33.05, 35.74 25.69, 56.41 -1.57 M22.66 41.25 C35.33 27.71, 45.93 12.71, 58.39 -0.15 M27.29 40.15 C36.03 31.97, 42.76 24.7, 64.79 -0.4 M28.41 41.18 C41.3 24.8, 54.69 8.81, 64.58 0.19 M33.06 40.61 C41.61 29.48, 52.55 18.22, 70.35 0.52 M33.08 40 C45.87 26.62, 56.77 12.99, 69.57 0.07 M38.18 39.4 C48.85 30.74, 56.98 19.11, 73.55 -0.93 M37.59 40.96 C49.53 27.29, 62.98 14.71, 75.3 -1.13 M42.61 38.89 C51.67 32.59, 60.49 21.13, 80.01 1.33 M44.13 41.18 C55.76 26.64, 70.37 10.75, 78.64 0.9 M47.48 41.67 C58.12 29.99, 70.35 13.84, 83.84 1.55 M49.82 40.71 C59.36 30.65, 68.62 19.61, 85.7 0.34 M54.38 42.5 C65.71 29.02, 72.07 19.73, 88.28 -1.81 M55.01 41.48 C65.22 27.3, 76.34 14.55, 89.53 0.3 M58.08 40.32 C70.99 26.68, 82.16 13.59, 97.06 -2.11 M59.02 40.36 C67.88 32.12, 76.57 22.63, 96.43 -0.22 M65.77 42.28 C74.07 29.36, 85.35 17.49, 99.06 -0.52 M64.39 40.1 C78.99 25.42, 91.68 12.02, 99.66 0.7 M69.86 39.71 C79.96 27.02, 91.27 14.39, 107.6 -2.03 M70.62 40.37 C80.51 28.26, 91.91 16.18, 105.7 -1.11 M75.18 40.11 C83.41 31.6, 91.84 19.32, 112.56 1.31 M76.45 40.73 C88.12 26.76, 99.07 14.31, 111.32 -0.18 M79.73 39.19 C92.9 27.23, 103.17 14.54, 112.96 5.42 M81.56 41.67 C88.25 31.23, 97.08 22.57, 111.26 6.65 M85.98 40.84 C90.26 35.1, 97.16 27.87, 109.51 12.61 M86.87 41.57 C93.51 33.14, 99.7 24.95, 111.74 13.65 M89.57 41.13 C98.54 32.74, 105.84 24.83, 110.82 18.61 M92.26 41.72 C96.53 34.32, 102.75 26.84, 111.61 18.26 M97.91 41.08 C102.81 35.79, 106.09 29.69, 110.64 23.4 M96.17 42.06 C101.02 34.77, 105.48 29.21, 110.7 24.83 M102.21 42.24 C105.94 37.27, 107.57 35.28, 110.56 31.65 M102.46 40.67 C104.55 39.33, 106.24 37.09, 111.12 30.68 M106.67 41.65 C108.7 40.5, 109.33 39.02, 111.27 37.24 M106.87 41.57 C107.84 40.36, 109 39.05, 111.21 37.16" stroke="#fab005" stroke-width="0.5" fill="none"></path><path d="M-0.71 0.08 C34.02 -0.97, 64.98 0.77, 108.92 -0.94 M-0.66 -0.51 C40.33 -0.74, 79.97 -0.75, 109.71 0.18 M110 -0.3 C111.22 8.86, 111.62 20.22, 108.75 38.78 M109.64 -0.68 C110.05 15.51, 110.87 29.16, 110.47 40.68 M110.65 40.04 C85.31 39.45, 61.07 39.91, -1.52 41.29 M109.3 39.53 C86.7 39.91, 64.9 39.04, 0.65 39.59 M-1.14 38.24 C1.54 27.74, -0.99 20.5, 0.66 0.16 M-0.33 40.47 C-0.57 30.09, -0.42 18.54, -0.46 -0.8" stroke="#000000" stroke-width="1" fill="none"></path></g><g transform="translate(58.57475048234869 108.36875343218014) rotate(0 15.057868957519531 10.447556287753969)"><text x="15.057868957519531" y="0" font-family="Virgil, Segoe UI Emoji" font-size="16.716090060406362px" fill="#000000" text-anchor="middle" style="white-space: pre;" direction="ltr" dominant-baseline="text-before-edge">KEY</text></g><g stroke-linecap="round" transform="translate(129.62932454695226 96.33278418451403) rotate(0 75.93492586490942 21.21087314662273)"><path d="M0 0 C0 0, 0 0, 0 0 M0 0 C0 0, 0 0, 0 0 M0.42 5.63 C0.85 3.59, 3.39 2.49, 4.37 0.44 M-0.55 6.11 C0.69 4.78, 1.56 3.56, 4.59 0.72 M1.15 10.61 C4.66 8.09, 5.93 4.97, 11.76 0.25 M0.57 11.83 C4.01 8.7, 6.48 4.99, 10.03 0.31 M0.37 17.22 C3.01 12.22, 11.46 5.44, 15.88 -1.25 M-0.08 17.78 C5.45 11.35, 11.54 5.81, 16.44 0.75 M1.45 23.04 C8.32 17.42, 12.52 5.51, 20.77 1.81 M0.23 24.79 C7.6 15.28, 14.39 7.44, 20.29 0.77 M0.35 32.18 C7.11 19.82, 19.1 10.71, 27.1 0.27 M-0.64 30.5 C5.43 24.13, 10.54 16.58, 25.35 0.49 M-0.07 36.63 C11.11 27.04, 18.04 14.62, 33.08 1.72 M-1.07 36.97 C6.17 28.54, 14.55 21.24, 31.06 0.55 M-1.77 44.24 C8.27 33.98, 17.15 25.55, 35.47 -1.46 M-0.51 41.8 C12.04 28.46, 24.18 15.14, 36.15 1.17 M5.76 44.86 C19.71 27.21, 30.89 12.27, 40.84 -0.06 M4.78 43.45 C19.01 26.56, 32.82 10.04, 42.89 -0.83 M12.36 41.23 C24.1 24.48, 39.92 9.24, 46.34 -0.05 M11.53 43.01 C24.72 25.53, 39.1 11.06, 46.8 0.97 M15.67 42.88 C24.04 31.08, 33.72 20.02, 54.91 1.37 M15.06 43.17 C30.01 25.36, 44.8 10.29, 52.97 -0.44 M23.12 44.11 C33.62 28.85, 43.95 16.05, 60.07 -0.13 M22.17 43.16 C28.58 33.14, 36.68 24.4, 57.74 -0.44 M24.74 44.1 C36.69 31.6, 45.41 23.08, 65.14 -0.1 M26.97 41.84 C39.68 28.02, 54.31 10.93, 63 0.15 M32.36 42.78 C41.07 34.66, 47.26 22.95, 68.02 -1.28 M31.1 42.66 C40.38 31.29, 49.86 20.8, 67.91 0.13 M36.35 40.93 C50.08 25.51, 65.49 10.69, 76.41 -1.59 M37.47 42.65 C51.32 27.46, 64.94 10.19, 75.18 -1.12 M40.93 44.12 C49.17 31.46, 60.24 22.76, 80.56 1.87 M42.52 41.44 C49.58 33.14, 56.4 24.55, 78.77 -0.64 M48.86 42.75 C62.47 25.41, 74.23 11.01, 84.55 0.79 M47.99 42.27 C56.59 32.27, 65.28 22.75, 84.2 -0.84 M52.71 44.02 C68.92 25.42, 84 7.27, 91.03 -0.29 M53.12 42.94 C66.68 25.57, 81.33 10.37, 90.25 -0.57 M59.61 43.95 C74.74 26.86, 87.33 7.8, 96.44 -0.05 M58.47 42.88 C70.01 29.08, 81.37 15.66, 95.25 -0.07 M62.54 43.37 C73.44 34.03, 81.61 22.85, 99.81 -0.35 M64.11 42.09 C77.21 25.31, 92.8 8.36, 100.8 0.02 M68.98 43.93 C81.01 31.78, 88.7 18.26, 105.94 -2.24 M69.37 42.17 C82.63 27.42, 95.47 12.83, 106.03 -0.38 M76.28 44.07 C84.81 31.24, 95.65 15.92, 110.24 -1.94 M75.16 41.31 C84.92 31.29, 96.04 17.97, 111.37 0.3 M80.32 43.08 C91.29 29.27, 102.7 19.6, 117.24 1.87 M79.64 43.31 C92.94 27.23, 108.1 11.8, 116.09 0.92 M86.81 41.01 C95.93 28.97, 107.97 14.58, 120.69 0.34 M84.49 42.54 C98.47 27.31, 112.09 12.77, 121.4 0.96 M92 42.78 C102.23 26.19, 115.83 13.26, 127.53 -1.33 M90.7 42.99 C99.19 33.67, 107.06 23.16, 127.42 -0.26 M93.97 42.07 C103.25 32.37, 113.82 22.05, 132.52 0.88 M96.78 43.21 C108.32 28.84, 119.85 13.46, 132.83 0.17 M101.36 41.42 C109.15 32.06, 115.26 26.2, 138.99 1.8 M100.52 43.37 C111.15 29.93, 121.14 19.03, 136.57 -0.23 M104.62 44.15 C115.63 29.86, 129.36 17.82, 142.08 -0.94 M107.24 42.24 C114.39 32.49, 122.59 23.06, 144.12 -0.38 M112.77 42.41 C122.9 30.59, 135.76 15.9, 149.5 1.14 M111.54 42.15 C119.18 32.79, 128.11 24.38, 147.24 -0.57 M115.97 41.89 C125.09 33.95, 133.73 24.69, 152.09 0.05 M116.89 42.81 C126.56 31.45, 135.02 20.89, 153.55 1.24 M121.59 42.12 C131.03 30.43, 143.31 18.7, 154 6.39 M122.69 42.5 C134.31 29.7, 144.45 16.04, 153.7 7.46 M126.19 44.68 C132.48 37.01, 136.96 29.15, 151.06 12.54 M127.25 43.36 C136.03 33.4, 144.09 21.76, 152.73 13.03 M134.17 41.95 C138.61 35.67, 147.85 25.15, 153.67 19.93 M133.43 43.1 C137.75 35.93, 144.7 27.79, 153.98 19.76 M138.49 41.15 C141.41 36.88, 148.45 31.05, 151.49 26.09 M138.36 42.06 C140.89 38.51, 143.59 34.75, 152.75 26.34 M143.75 43.82 C146.63 38.76, 151.08 34.64, 152.26 29.79 M143.61 42.21 C147.17 38.05, 151.28 33.7, 153.68 31.78 M148.1 43.29 C149.93 40.94, 150.63 39.39, 152.97 37.28 M147.99 42.46 C149.45 41.58, 150.79 40.14, 153.07 37.54" stroke="#ced4da" stroke-width="0.5" fill="none"></path><path d="M1.55 1.28 C51.88 0.67, 104.12 -1.09, 150.93 -1.59 M0.1 -0.97 C47.99 1.15, 95.52 0.46, 152.53 -0.1 M150.64 0.8 C152.32 8.09, 150.71 17.71, 152.61 43.71 M152.82 0.89 C151.73 8.75, 151.99 19.63, 151.31 41.86 M152.19 42.68 C113.28 39.64, 79.97 39.47, -0.45 40.43 M151.68 42.25 C98.64 44.3, 46.31 44.24, 0.51 42.06 M-1.93 44.15 C0.58 28.94, 2.27 17.44, 0.06 0.97 M-0.7 41.88 C0.14 26.98, 0.72 9.01, 0.69 0.48" stroke="#000000" stroke-width="1" fill="none"></path></g><g transform="translate(138.03241294848272 107.0503251025998) rotate(0 67.5318374633789 10.4933322285369)"><text x="67.5318374633789" y="0" font-family="Virgil, Segoe UI Emoji" font-size="16.789331565659037px" fill="#000000" text-anchor="middle" style="white-space: pre;" direction="ltr" dominant-baseline="text-before-edge">NODE POINTER</text></g><g stroke-linecap="round" transform="translate(10 87) rotate(0 139.99176276771004 31.81630971993411)"><path d="M0.14 -1.04 C76.23 2.78, 154.53 0.47, 280.98 -1.32 M0.66 -0.04 C59.6 2.41, 119.2 1.51, 279.33 0.2 M278.54 -0.41 C278.35 16.9, 279.26 32.47, 281.81 64.65 M280.97 0.72 C280.41 18.23, 280.49 36.13, 280.02 64.43 M280.85 63.42 C184.74 62.08, 89.42 63.44, -1.06 64.85 M279.5 63.43 C190.1 65.87, 101.22 64.9, -0.11 64.25 M1.05 63.49 C-1.75 45.73, 1.5 25.11, 1.49 -0.86 M0.01 62.9 C-0.49 46.04, -0.5 30.72, 0.77 0.89" stroke="#000000" stroke-width="1" fill="none"></path></g><g stroke-linecap="round" transform="translate(466 40) rotate(0 86.5 24)"><path d="M-1.45 -1.88 C54.99 -0.53, 110.4 -2.74, 172.51 -0.84 M-0.88 0.39 C69.22 1.23, 136.39 1.98, 173.15 0.96 M172.11 0.75 C174.37 15.32, 172.58 30.56, 172.31 47.98 M173.26 0.85 C173.28 13.67, 173 27.42, 172.76 48.73 M174.22 46.71 C125.92 48.72, 80.76 49.24, -0.28 47.79 M172.23 47.22 C138.44 48.32, 104.54 48.5, 0.37 47.15 M1.02 49.83 C-0.25 35.41, 1.38 22.53, 1.57 -1.27 M0.53 47.29 C-0.92 36.87, -0.31 23.53, 0.65 0.31" stroke="#000000" stroke-width="1" fill="none"></path></g><g stroke-linecap="round" transform="translate(474.5 148.2145343150637) rotate(0 40.006405124099274 17.08606885508408)"><path d="M0 0 C0 0, 0 0, 0 0 M0 0 C0 0, 0 0, 0 0 M0.34 5.91 C1.62 5.58, 2.61 3.54, 4.41 0.18 M0.01 6.33 C1.6 4.37, 3.62 2.2, 4.64 0.51 M-0.75 12.78 C4.01 6.59, 7.57 2.98, 9.32 -0.9 M-0.31 11.35 C2 9.36, 5.06 6.51, 9.96 -0.05 M-0.62 19.36 C4.58 12.42, 9.8 10.77, 16.98 2.28 M0.24 18.89 C3.74 14.89, 8.5 8.51, 15.03 -0.3 M1.26 23.74 C6.45 19.11, 9.43 14.7, 22.77 -1.84 M1.06 23.96 C4.62 17.8, 11.26 12.09, 21.82 0.77 M0.8 29.69 C9.53 20.6, 16.38 9.4, 24.82 0.8 M-0.32 29.95 C10.01 18.13, 19.29 8.83, 26.16 -0.12 M-0.75 36.2 C10.57 20.18, 24.72 8.5, 32.03 -1.37 M1.59 35.55 C8.56 25.5, 17.74 17.69, 32.23 0.6 M6.95 33.97 C14.98 26.43, 20.8 19.61, 36.47 -1.69 M7.21 35.82 C17.05 22.46, 28.89 8.64, 36.2 0.47 M11.57 34.66 C20.99 23.45, 31.32 11.09, 40.67 0.65 M11.02 34.57 C19.4 26.6, 24.46 19.8, 42.45 -0.12 M19.1 35.58 C29.46 23.98, 38.18 11.2, 46.32 0.68 M17.65 33.95 C28.33 23.98, 37.11 11.46, 47.32 1.16 M22.77 36.27 C31.03 23.31, 43.66 10.26, 53.57 -0.42 M21.7 36.04 C32.86 24.49, 42.61 10.94, 53.4 -0.46 M26.21 34.42 C41.94 22.74, 53.71 6.52, 57.75 0.76 M27.98 35.81 C34.64 26.38, 40.73 18.97, 57.22 0.16 M32.25 33.92 C44.07 20.7, 56.44 7.69, 64.63 1.78 M33.29 36.15 C42.88 25.46, 50.19 14.89, 63.53 -0.95 M38.16 36.84 C45.41 25.86, 51.92 17.82, 67.16 -1.59 M38.64 34.85 C45.75 28.19, 51.67 20.7, 69.06 0.16 M44.4 35.45 C51.23 25.81, 60.32 19.19, 72.74 0.6 M42.99 35.61 C56.41 21.56, 68.26 8.13, 74.75 0.33 M49.85 36.19 C58.98 24.58, 68.02 14.29, 79.94 0.5 M49.55 35.02 C60.01 21.51, 69.86 10.95, 79.53 0.34 M52.6 35.72 C63.96 21.88, 76.49 12.15, 83.16 3.43 M53.48 35.6 C60.43 29.19, 66.23 22.65, 81.88 2.86 M60.51 33.6 C68.56 23.99, 77.95 16.45, 83.27 9.18 M59.49 35.51 C67.17 26.36, 75.76 16.77, 83.58 8.72 M63.24 36.6 C70.46 29.89, 71.32 23.96, 83.55 15.67 M64.92 35.82 C72.06 27.94, 77.45 21.44, 82.6 15.62 M68.33 34.92 C74.58 30.57, 76.84 24.2, 84.46 20.78 M70.71 35.76 C74.43 29.95, 78.3 24.8, 82.84 20.95 M75.61 35.02 C76.22 33.26, 78.55 31.3, 83.21 26.7 M75.21 34.76 C77.51 32.39, 80.43 29.9, 82.97 26.92" stroke="#fab005" stroke-width="0.5" fill="none"></path><path d="M0.32 -0.17 C27.98 -0.55, 55.14 -1.14, 81.95 1.52 M-0.6 -0.18 C28.77 -0.22, 59.92 0.53, 79.47 0.44 M80.8 0.49 C81.24 10.04, 78.57 24.17, 79.66 32.85 M79.89 0.48 C79.81 12.28, 80.8 23.34, 80.06 33.91 M79.47 32.55 C58.15 34.58, 36.08 33.75, -0.03 35.59 M80.69 34.23 C63.76 34.49, 46.33 33.01, -0.71 34.15 M0.9 32.6 C-0.33 23.41, 1.73 10.98, 1.79 1.4 M0.15 34.32 C-0.69 23.61, -0.86 12.96, -0.09 -0.11" stroke="#000000" stroke-width="1" fill="none"></path></g><g transform="translate(499.84294534626724 155.1243226108166) rotate(0 14.663459777832031 10.17628055933119)"><text x="14.663459777832031" y="0" font-family="Virgil, Segoe UI Emoji" font-size="16.2820488949299px" fill="#000000" text-anchor="middle" style="white-space: pre;" direction="ltr" dominant-baseline="text-before-edge">KEY</text></g><g stroke-linecap="round" transform="translate(554.5128102481985 147.79780092835426) rotate(0 40.006405124099274 17.08606885508408)"><path d="M0 0 C0 0, 0 0, 0 0 M0 0 C0 0, 0 0, 0 0 M0.24 6.3 C0.36 4.73, 2.64 2.95, 4.64 0.9 M-0.15 6.47 C0.88 4.83, 3.07 2.96, 5.05 0.14 M-0.66 12.46 C2.48 7.04, 5.92 2.37, 10.17 -0.92 M0.63 11.46 C1.77 9.47, 4.36 6.48, 10.21 -0.23 M1.53 20.09 C6.63 14.24, 9.66 5.58, 16.09 1.07 M0.7 17.48 C4.72 11.41, 9.93 4.83, 15.39 0.82 M-0.02 25.25 C7.55 15.45, 10.94 11.99, 22.35 1.53 M1.06 24.17 C7.03 18.01, 12.7 9.84, 21.56 0.33 M-0.48 28.74 C5.26 23.15, 14.9 15.53, 28.16 -0.36 M0.03 31.36 C6.28 22.85, 13.51 15.97, 27.16 -0.61 M2.25 34.7 C12.03 22.28, 21.67 11.92, 31.29 0.97 M1.68 36.17 C11.36 25.01, 20.08 13.54, 30.93 0.02 M7.42 34.93 C13.54 24.51, 22.83 19.37, 36.7 1.28 M7 34.12 C17.78 21.77, 30.3 8.56, 37.62 0.2 M11.53 34.22 C18.13 26.72, 26.55 16.35, 43.78 -1.47 M11 35.44 C18.15 27.68, 25.56 20.07, 42.15 0.75 M17.49 35.03 C25.84 23.73, 37.78 12.17, 47.12 0.86 M16.9 34.73 C22.87 28.72, 29.46 21.8, 47.45 0.45 M23.36 33.99 C33.71 22.7, 44.75 10.13, 51.71 -1.41 M21.86 34.5 C34.04 21.5, 46.28 8.29, 52.65 -1.05 M29.68 33.93 C35.56 25.68, 42.66 14.2, 57.79 0.23 M27.25 34.16 C38.88 21.62, 52.51 8.13, 58.85 -0.16 M32.14 35.86 C41.15 29.06, 47.14 17.23, 63.97 0.49 M32.42 35.04 C44.35 20.65, 56.08 7.63, 63.36 -0.42 M36.89 34.98 C49.12 19.38, 61 7.92, 68.11 0.25 M38.96 35.36 C47.57 24.35, 55.7 13.93, 69.48 0.56 M45.26 36.7 C51.47 25.14, 64.37 11.59, 74.46 -1.41 M44.38 35.25 C54.06 23.86, 64.32 12.1, 74.71 0.07 M49.01 36.56 C60.8 22.31, 72.54 10.85, 78.47 0.78 M48.46 35.76 C58.86 24.32, 69.1 12.66, 78.52 -0.69 M55.11 36.35 C64.32 25.49, 70.8 14.34, 83.42 1.28 M54.91 35.84 C63.08 24.09, 73.96 13.2, 82 3.4 M60.28 36.77 C64.35 31.02, 69.77 24.94, 83.05 8.99 M59.03 36.08 C67.04 27.75, 72.6 19.94, 83.45 7.59 M63.07 33.69 C72.26 28.5, 79.04 19.74, 81.52 14.95 M64.69 35.99 C71.19 28.55, 77.99 19.4, 83.41 14.04 M67.88 34.46 C74.86 31.79, 77.76 28.91, 84.16 22.19 M69.41 35.25 C73.94 31.19, 77.44 26.44, 82.36 20.56 M75.51 34.82 C78.15 32.6, 80.01 30.25, 82.03 26.32 M75.71 35.28 C77.49 33.29, 78.72 31.59, 82.17 26.31" stroke="#868e96" stroke-width="0.5" fill="none"></path><path d="M0.62 -1.85 C25.27 2.03, 48.05 -1.02, 80.51 -1.21 M0.87 0.72 C22.02 0.45, 45.41 0.94, 79.74 0.39 M78.25 1.7 C79.81 9.77, 80.95 21.6, 80.14 33.94 M80.9 0.16 C80.03 11.63, 79.68 24.49, 80.26 33.9 M79.36 33.54 C62.48 35.68, 43.23 32.36, -0.47 35.52 M80.11 33.2 C54.87 34.55, 31.71 33.64, -0.63 34.62 M1.41 35.4 C1.9 28.01, 0.13 20.81, -1.53 0.31 M-0.56 33.55 C0.04 23.32, 0.53 13.16, 0.37 -0.24" stroke="#000000" stroke-width="1" fill="none"></path></g><g transform="translate(568.8195159704424 154.70758922410715) rotate(0 25.69969940185547 10.17628055933119)"><text x="25.69969940185547" y="0" font-family="Virgil, Segoe UI Emoji" font-size="16.2820488949299px" fill="#000000" text-anchor="middle" style="white-space: pre;" direction="ltr" dominant-baseline="text-before-edge">VALUE</text></g><g stroke-linecap="round"><g transform="translate(533.3602468550046 240.29780092835432) rotate(0 2.4365670673968225 -24.975610822439222)"><path d="M1.38 -1.53 C0.97 -11.62, 1.07 -22.29, 4.59 -48.26 M0.29 0.93 C1.72 -18.25, 3.96 -36.81, 4.02 -50.88" stroke="#000000" stroke-width="1" fill="none"></path></g><g transform="translate(533.3602468550046 240.29780092835432) rotate(0 2.4365670673968225 -24.975610822439222)"><path d="M13.02 -28.49 C10.33 -33.07, 7.89 -38.34, 3.99 -49.14 M11.92 -26.03 C8.66 -35.44, 6.34 -44.29, 3.43 -51.76" stroke="#000000" stroke-width="1" fill="none"></path></g><g transform="translate(533.3602468550046 240.29780092835432) rotate(0 2.4365670673968225 -24.975610822439222)"><path d="M-4.14 -29.19 C-3.27 -33.76, -2.15 -38.88, 3.99 -49.14 M-5.24 -26.73 C-2.11 -35.95, 1.96 -44.55, 3.43 -51.76" stroke="#000000" stroke-width="1" fill="none"></path></g></g><mask></mask><g stroke-linecap="round"><g transform="translate(571.2624189254943 190.29780092835426) rotate(0 1.1080053872548206 25.80748252570632)"><path d="M0.5 -1.21 C0.4 18.43, 1.11 41.62, 2.49 51.92 M-0.27 0.39 C0.76 18.67, 0.27 35.57, 1.89 52.82" stroke="#000000" stroke-width="1" fill="none"></path></g><g transform="translate(571.2624189254943 190.29780092835426) rotate(0 1.1080053872548206 25.80748252570632)"><path d="M-8.24 27.34 C-4.94 36.25, -0.61 48.63, 3.34 51.74 M-9.01 28.94 C-4.77 37.25, -1.95 44.27, 2.74 52.65" stroke="#000000" stroke-width="1" fill="none"></path></g><g transform="translate(571.2624189254943 190.29780092835426) rotate(0 1.1080053872548206 25.80748252570632)"><path d="M9.85 26.18 C6.36 35.39, 3.88 48.21, 3.34 51.74 M9.08 27.79 C7.11 36.66, 3.7 44.08, 2.74 52.65" stroke="#000000" stroke-width="1" fill="none"></path></g></g><mask></mask><g stroke-linecap="round" transform="translate(468.5 141.29780092835426) rotate(0 86.5 24)"><path d="M-0.36 -1.51 C38.61 2.79, 78.74 -0.04, 173.88 0.57 M0.25 0.45 C67.36 -1.56, 136.76 -0.86, 172.34 0.39 M173.96 -0.19 C174.42 14.75, 173.35 26.05, 172.48 47.41 M172.19 -0.11 C173.22 17.46, 172.81 35.55, 173.71 47.11 M173.11 49.27 C138.51 49.35, 100.06 47.75, -0.05 49.15 M172.21 47.68 C138.01 49.48, 102.18 49.67, 0.7 48.01 M0.29 47.22 C-0.18 28.25, -0.88 10.56, -0.21 0.8 M0.39 48.74 C-1.07 31.12, 0.09 14.46, -0.28 -0.83" stroke="#000000" stroke-width="1" fill="none"></path></g><g stroke-linecap="round" transform="translate(475.5 249.2145343150637) rotate(0 40.006405124099274 17.08606885508408)"><path d="M0 0 C0 0, 0 0, 0 0 M0 0 C0 0, 0 0, 0 0 M0.11 6.28 C0.92 4.25, 3.03 2.22, 4.55 -0.39 M-0.61 6.2 C0.78 5.37, 1.73 3.49, 4.98 0.2 M0.87 12.46 C1.66 10.41, 6.7 7.19, 12.2 -0.89 M0.49 12 C3.8 9.3, 5.19 4.8, 10.13 -0.68 M-0.47 19.78 C3.39 14.4, 7.46 12.52, 13.85 -0.72 M-0.25 17.79 C5.58 12.21, 11.84 5.09, 16.46 0.52 M-0.53 25.12 C5.54 17.17, 9.49 9.88, 21.77 1.31 M-0.26 24.51 C6.17 16.03, 15.08 7.76, 20.85 0.59 M0.84 28.79 C6.14 22.3, 15.77 11.64, 24.98 -0.47 M0.18 30.01 C7.95 21.15, 17.97 11.04, 26.95 -0.46 M0.05 37.05 C11.21 23.57, 23.03 9.98, 29.95 1.24 M1.9 34.91 C12.98 22.06, 23.61 7.64, 32.1 0.13 M6.02 34.45 C16.36 23.19, 25.58 9.85, 37.67 -1.39 M5.93 35.95 C14.52 24.31, 24.29 14.73, 36.89 0.7 M12.33 37.18 C22.99 23.4, 32.45 10.24, 42.98 0.58 M10.69 36.27 C22.32 23.4, 31.39 12.23, 43.46 0.21 M18.3 33.68 C29.25 22.07, 40.11 7.6, 47.26 0.93 M18.07 35.07 C26.81 25.04, 33.53 16.11, 47.22 1.19 M21.83 37.22 C32.49 27.47, 38.59 15.54, 53.72 -1.78 M23.22 35.12 C28.61 26.31, 36.02 17.83, 53.12 0.77 M26.61 33.89 C36.48 23.7, 46.58 14.84, 60.12 -0.14 M28.84 35.81 C34.87 26.61, 41.03 19.22, 57.39 -0.32 M34.91 34.58 C41.93 22.91, 51.85 12.28, 62.04 -1.96 M32.92 36.12 C43.88 23.86, 54 12.02, 63.78 -0.77 M38.81 34.98 C46.6 26.29, 57.43 12.8, 69.61 1.8 M38.96 35.62 C45.01 28.35, 51.65 20.38, 69.34 0.35 M44.93 35.63 C56.08 21.48, 68.57 8.79, 74.79 0.95 M43.76 35.47 C54.62 20.72, 68.4 7.96, 74.64 0.53 M49.74 33.84 C56.06 26.92, 66.43 17.71, 80.09 -1.86 M49.62 35.41 C58.96 25.12, 68.2 13.23, 79.52 0.88 M52.25 35.76 C62.1 25.5, 73.97 14.28, 83.21 3.84 M54.16 34.82 C63.41 24.86, 72.23 15.71, 82.75 2.1 M60.63 37.11 C67.04 24.35, 74.28 17.49, 83.69 9.57 M59.85 36.38 C66.07 27.65, 73.63 20.09, 83.65 8.75 M64.23 35.38 C68.69 28.99, 71.18 28.08, 82.9 15.65 M65.08 35.38 C71.09 26.9, 77.81 19.52, 83.07 13.93 M69.64 34.17 C74.49 30.05, 78.97 25.41, 82.73 20.96 M69.16 34.95 C73.66 31.57, 77.93 27.2, 83.12 20.11 M75.34 35.53 C78.63 31.98, 79.81 29.25, 82.09 27.04 M75.74 35.5 C76.79 33.09, 78.05 32.1, 82.4 26.58" stroke="#fab005" stroke-width="0.5" fill="none"></path><path d="M0.49 0.91 C30.24 -2.07, 64.56 -0.67, 78.69 0.78 M0.48 -0.1 C22.32 0.98, 43.42 0.15, 79.75 -0.29 M78.39 -0.22 C80.31 12.01, 79.47 25.29, 81.44 32.39 M80.07 0.64 C80.43 7.11, 78.96 13.32, 79.99 34.75 M78.44 33.53 C64.94 35.94, 48.2 36.32, 1.4 34.2 M80.16 33.78 C48.69 33.73, 17.29 34.2, -0.11 34.57 M0.79 35.64 C-1.91 21.95, 0.41 10.18, -0.57 -1.66 M-0.74 34.75 C0.51 23.06, 0.06 11.27, 0.17 -0.72" stroke="#000000" stroke-width="1" fill="none"></path></g><g transform="translate(500.84294534626724 256.1243226108166) rotate(0 14.663459777832031 10.17628055933119)"><text x="14.663459777832031" y="0" font-family="Virgil, Segoe UI Emoji" font-size="16.2820488949299px" fill="#000000" text-anchor="middle" style="white-space: pre;" direction="ltr" dominant-baseline="text-before-edge">KEY</text></g><g stroke-linecap="round" transform="translate(555.5128102481985 248.79780092835426) rotate(0 40.006405124099274 17.08606885508408)"><path d="M0 0 C0 0, 0 0, 0 0 M0 0 C0 0, 0 0, 0 0 M-0.05 5.74 C0.83 3.95, 2.08 2.76, 4.54 -0.33 M-0.55 6.06 C1.06 4.69, 2.18 3.13, 4.89 0.54 M1.45 13.13 C5.21 7.16, 6.73 4.45, 11.22 0.68 M-0.63 11.57 C2.61 7.75, 5.43 4.66, 11.03 -0.17 M1.04 19.95 C3.86 10.76, 13.02 6.24, 17.21 0.08 M-0.04 19 C4.44 14.25, 6.92 10.11, 16.02 -0.07 M-1.47 22.66 C8.18 17.02, 15.81 9.05, 20.61 -1.12 M1.15 23.99 C7.29 16.44, 15.09 8.4, 20.36 0.35 M-0.66 30.62 C4.69 23.05, 12.11 16.72, 27.32 0.65 M0.81 30.82 C7.54 21.94, 13.98 14.11, 26.37 -0.21 M1.01 34.96 C11.13 22.99, 26.5 7.85, 32.92 1.59 M0.2 34.69 C9.02 26.5, 16.98 18.01, 31.83 -0.44 M5.59 33.12 C15.79 23.85, 23.13 17.25, 35.55 -1.28 M6.81 34.9 C18.99 21.82, 31.31 7.21, 37.77 0.58 M11.78 34.14 C24.08 22.12, 36.15 7.09, 43.16 -2.13 M11.48 35.15 C24.55 21.83, 36.75 7.46, 42.75 0.35 M16.02 35.36 C24.26 27.26, 31.2 16.89, 46.27 1.7 M16.53 35.19 C26.18 25.19, 35.67 12.87, 46.63 -0.02 M21.34 34.91 C34.85 19.37, 45.16 6.57, 53.19 1.63 M21.57 34.38 C31.33 26.45, 40.08 16.21, 52.8 -0.85 M28.56 35.75 C37.53 26.04, 41.49 17.91, 58.83 1.96 M27.73 34.65 C38.91 20.99, 51.47 7.51, 57.92 1.17 M33.06 33.66 C39.48 24.35, 50.05 16.02, 63.88 -0.25 M33.43 35.56 C44.64 20.9, 56.46 8.48, 64.19 -0.1 M40.05 33.2 C48.75 25.65, 55.45 13.45, 67.6 0.9 M38.61 35.21 C50.51 21.81, 62.04 8.9, 69.08 0.83 M45.3 35.78 C53.65 25.1, 64.83 11.64, 75.08 0.12 M44.5 35.36 C54.13 24.75, 63.49 11.64, 73.61 0.02 M50.38 35.58 C57.69 24.04, 64.68 18.34, 77.94 0.92 M49.86 34.3 C59.91 22.96, 70.85 9.35, 80.05 -0.86 M55.42 35.65 C64.5 25.48, 73.18 13.96, 83.02 2.65 M54.73 35.97 C61.8 26.07, 69.42 18.82, 81.62 3.46 M57.72 36.55 C69.04 26.69, 76.78 14.22, 82.98 9.7 M60.02 35.6 C69.07 25.55, 76.42 15.65, 82.07 8.08 M63.77 36.67 C70.67 29.87, 77.37 23.88, 84.32 15.27 M64.56 35.06 C71.12 27.82, 76.96 21.54, 82.68 14.69 M69.27 36.48 C72.67 32.54, 75.83 27.32, 82.03 19.11 M70.11 36.04 C73.2 31.49, 76.83 27.21, 82 20.31 M74.51 35.19 C77.27 32.56, 79.22 30.33, 83.24 27.37 M75.18 35.51 C77.86 31.87, 81.02 28.59, 82.78 26.69" stroke="#868e96" stroke-width="0.5" fill="none"></path><path d="M1.7 -0.35 C26.3 1.49, 54.66 0.83, 79.78 0.96 M0.16 0.05 C22.96 -1, 47.15 -0.46, 79.74 -0.81 M79.38 -0.03 C81.47 8.09, 78.15 19.27, 81.36 34.28 M79.04 -0.71 C80.16 13, 79.25 24.23, 80.46 33.39 M81.24 35.96 C59.99 34.76, 38.93 33.21, 0.31 34.46 M79.39 34.08 C59.01 34.12, 38.71 34.1, -0.24 34.57 M0.54 33.98 C-0.26 19.74, 1.07 9.18, -1.41 -1.48 M0.15 34.39 C-0.03 21.22, 0.14 9.84, 0.75 -0.61" stroke="#000000" stroke-width="1" fill="none"></path></g><g transform="translate(569.8195159704424 255.70758922410715) rotate(0 25.69969940185547 10.17628055933119)"><text x="25.69969940185547" y="0" font-family="Virgil, Segoe UI Emoji" font-size="16.2820488949299px" fill="#000000" text-anchor="middle" style="white-space: pre;" direction="ltr" dominant-baseline="text-before-edge">VALUE</text></g><g stroke-linecap="round"><g transform="translate(540.0421116828982 341.29780092835426) rotate(0 1.102156903172272 -25.031284719705553)"><path d="M-0.59 0.13 C0.38 -13.16, 0.71 -26.85, 2.8 -49.68 M0.71 0.25 C0.17 -16.07, 0.64 -30.41, 0.7 -50.31" stroke="#000000" stroke-width="1" fill="none"></path></g><g transform="translate(540.0421116828982 341.29780092835426) rotate(0 1.102156903172272 -25.031284719705553)"><path d="M8.48 -26.63 C6.63 -32.41, 4.31 -38.64, 2.47 -49.99 M9.78 -26.5 C6.31 -34.78, 3.91 -41.05, 0.38 -50.63" stroke="#000000" stroke-width="1" fill="none"></path></g><g transform="translate(540.0421116828982 341.29780092835426) rotate(0 1.102156903172272 -25.031284719705553)"><path d="M-8.62 -26.76 C-5.65 -32.57, -3.14 -38.76, 2.47 -49.99 M-7.32 -26.63 C-5.58 -34.82, -2.75 -41.05, 0.38 -50.63" stroke="#000000" stroke-width="1" fill="none"></path></g></g><mask></mask><g stroke-linecap="round"><g transform="translate(574.3355270635127 291.2978009283543) rotate(0 1.7764152381499798 24.449379533529253)"><path d="M-0.24 0.96 C0.91 18, 4.14 33.56, 3.8 48.48 M-0.27 -0.81 C1.23 13.35, 2.02 26.19, 3.68 49.71" stroke="#000000" stroke-width="1" fill="none"></path></g><g transform="translate(574.3355270635127 291.2978009283543) rotate(0 1.7764152381499798 24.449379533529253)"><path d="M-6.55 28.23 C-3.18 36.26, 2.17 42.8, 3.78 49.19 M-6.58 26.45 C-3.56 33.42, -1.07 39.07, 3.67 50.42" stroke="#000000" stroke-width="1" fill="none"></path></g><g transform="translate(574.3355270635127 291.2978009283543) rotate(0 1.7764152381499798 24.449379533529253)"><path d="M10.22 27.05 C7.89 35.5, 7.56 42.44, 3.78 49.19 M10.18 25.28 C8.68 32.6, 6.63 38.57, 3.67 50.42" stroke="#000000" stroke-width="1" fill="none"></path></g></g><mask></mask><g stroke-linecap="round" transform="translate(469.5 242.29780092835426) rotate(0 86.5 24)"><path d="M-0.19 1.39 C54.76 -0.51, 106.07 -1.35, 172.41 1.41 M-0.11 0.1 C55.93 1.09, 112.48 2.12, 172.11 -0.95 M174.27 1 C173.51 11.33, 171.91 26.48, 174.15 46.13 M172.68 0.72 C173.92 12, 174.11 23.46, 173.01 48.88 M172.22 47.46 C133.19 47.01, 95.45 48.04, 0.8 48.97 M173.74 47.11 C114.46 48.95, 56.15 48.4, -0.83 48.38 M1.16 49.2 C1.24 32.6, 0.77 16.95, -1.43 0.69 M0.88 48.71 C0.26 32.79, -1.08 17.59, 0.56 -0.65" stroke="#000000" stroke-width="1" fill="none"></path></g><g stroke-linecap="round" transform="translate(479.5 348.2145343150637) rotate(0 40.006405124099274 17.08606885508408)"><path d="M0 0 C0 0, 0 0, 0 0 M0 0 C0 0, 0 0, 0 0 M-0.05 5.84 C1.72 5.54, 2.9 4.17, 4.56 0.19 M-0.28 6.78 C1.75 4.04, 2.88 2.21, 4.66 -0.03 M1.21 12.27 C2.75 9.64, 7.1 3.95, 9.79 1.25 M-0.39 11.89 C4.39 7.85, 7.92 4.17, 10.78 -0.33 M0.91 18.27 C4.51 10.79, 8.76 7.06, 17 1.07 M0.3 17.49 C6.18 12.24, 12.3 3.78, 16.27 0.51 M-1.42 22.14 C9.88 13.89, 17.03 3.86, 20.5 0.44 M-0.21 23.4 C6.43 18.33, 11.81 11.71, 20.51 0.45 M1.68 29.45 C6.04 24.4, 10.28 16.34, 27.59 1.87 M-0.46 30.69 C7.79 20.61, 14.46 12.88, 26.48 0.65 M0.53 35.16 C12.45 21.1, 22.28 9.74, 30.25 -0.24 M2.03 34.56 C11.81 22.83, 23.61 9.86, 32.34 0.23 M8.54 35.87 C14.49 25.83, 21.09 17.05, 37.6 0.69 M7.64 35.61 C14.63 25.33, 23.33 16.75, 37.23 1.24 M10.42 35.2 C21.74 23.42, 30.2 14.03, 43.22 -0.59 M11.81 36.19 C18.49 26.21, 26.23 18.63, 43.49 -0.37 M19.25 36.4 C26.91 25.35, 32.35 18.21, 45.9 -1.11 M17.15 33.98 C25.14 24.11, 33.45 15.03, 48.45 0.25 M21.3 34.93 C33.08 22.94, 46.18 11.17, 52.82 -1.76 M23.22 35.58 C31.22 23.81, 41.04 12.31, 52.64 -0.15 M27.27 34.42 C34.12 25.76, 42 14.95, 56.39 0.82 M28.82 35.5 C36.37 26.13, 44.35 16.37, 57.57 0.11 M33.06 34.71 C45.93 23.53, 54.01 9.75, 65.43 -1.88 M33.69 35.17 C43.28 24.45, 52.13 14.28, 63.97 0.58 M38.99 35.79 C48.22 24.95, 58.92 12.16, 69.96 1.85 M38.82 33.88 C45.37 26.94, 53.91 17.43, 69.53 -0.24 M42.58 33.89 C51.32 28.77, 57.72 20.76, 72.43 -0.11 M44.15 35.89 C55.34 23.33, 64.9 10.38, 75.17 0.02 M49.79 33.38 C57.86 27.38, 65.02 18.01, 80.5 0.33 M48.85 35.31 C58.36 24.55, 68.7 13.54, 78.76 0.66 M55.76 34.85 C62.95 21.72, 75.97 12.28, 83.6 2.45 M55.03 35.2 C61.04 27.78, 68.24 19.73, 82.78 1.88 M59.41 35.8 C66.57 24.07, 79.15 15, 83.68 9.94 M59.41 35.25 C67.07 25.42, 75.9 16.41, 81.96 9.05 M63.48 34.93 C69.17 29.69, 74.35 25.09, 83.08 14.68 M64.26 35.05 C69.64 30.65, 73.99 25.63, 82.24 15.4 M70.56 36.39 C72.3 30.67, 75.51 28.22, 83.33 18.49 M70.51 35.37 C74.03 29.33, 80.17 23.76, 82.5 20.84 M74.47 34.78 C78.01 33.77, 78.32 30.87, 81.83 26.03 M75.36 35.53 C77.08 32.89, 79.06 31.53, 83.18 27.04" stroke="#fab005" stroke-width="0.5" fill="none"></path><path d="M-0.22 0.21 C25.37 0.02, 52 2.07, 78.23 -1.9 M0.64 0.5 C22.21 -1.01, 43.52 -0.07, 80.59 -0.94 M79.37 1.45 C81.58 9.33, 81.95 17.6, 80.04 35.93 M79.62 -0.27 C79.5 7.02, 79.97 15.18, 80.41 34.66 M81.48 32.39 C52.69 35.03, 25.83 33.92, -1.66 34.94 M80.59 34.77 C54.3 33.73, 27.9 33.75, -0.72 34.52 M1.77 35.59 C0.99 23.19, -1.7 12.23, 1.11 -1.3 M-0.1 34.42 C0.04 25.61, -1.1 17.03, 0.92 -0.06" stroke="#000000" stroke-width="1" fill="none"></path></g><g transform="translate(504.84294534626724 355.12432261081653) rotate(0 14.663459777832031 10.17628055933119)"><text x="14.663459777832031" y="0" font-family="Virgil, Segoe UI Emoji" font-size="16.2820488949299px" fill="#000000" text-anchor="middle" style="white-space: pre;" direction="ltr" dominant-baseline="text-before-edge">KEY</text></g><g stroke-linecap="round" transform="translate(559.5128102481985 347.79780092835426) rotate(0 40.006405124099274 17.08606885508408)"><path d="M0 0 C0 0, 0 0, 0 0 M0 0 C0 0, 0 0, 0 0 M0.28 7.18 C0.47 4.8, 2.29 3.88, 5.35 0.32 M-0.5 6.15 C1.44 3.67, 3.75 1.86, 4.92 0.63 M1.34 10.63 C2.61 9.47, 7.62 5.67, 10.44 -1.08 M0.58 12.71 C3.15 8.33, 6.19 5.55, 10.31 0.38 M-1.55 18.95 C5.89 14.05, 11 7.37, 14.57 1.19 M-0.22 18.02 C3.75 14.77, 7.22 9.98, 16.04 -0.52 M0.4 22.82 C3.61 19.76, 8.03 15.43, 21.62 -1.02 M0.6 24.79 C4.24 18.82, 8.9 12.83, 20.76 0.77 M-0.4 28.54 C7.77 24.56, 12.78 16.49, 27.94 -0.63 M-0.68 30.69 C8.57 21.37, 17.5 11.27, 25.91 0.03 M-0.8 36.16 C8.37 25.13, 20.21 13.66, 30.36 1.85 M0.98 35.38 C8.49 27.9, 14.42 20.7, 32.21 0.82 M5.51 35.43 C17.8 23.42, 27.1 11.65, 34.89 2.14 M6.52 35.92 C18.18 23.38, 28.77 9.98, 37.36 -0.37 M12.1 35.09 C21.25 24.68, 28.15 13.48, 43.99 0.11 M11.94 35.05 C24.72 21.66, 35.15 7.32, 42.28 0.83 M16.94 35.51 C26.68 20.8, 39.19 9.23, 49.31 -0.14 M16.41 34.91 C24.67 28.11, 30.6 20.66, 46.83 -0.28 M23.17 37.28 C30.81 23.64, 40.01 15.93, 54.92 1.64 M22.06 34.55 C32.11 23.75, 42.32 11.87, 54.13 -0.52 M26.35 33.16 C34.82 25.95, 44.24 15.84, 58.09 1.91 M28.25 34.91 C38.13 22.19, 50.26 10.19, 58.25 0.24 M31.28 36.11 C42.68 23.71, 49.47 14.57, 64.53 1.29 M33.29 35.84 C41.8 25.76, 50.84 14.99, 64.46 -0.01 M39.13 35.25 C50.26 24.29, 58.59 11.24, 69.13 0.62 M38.72 35.09 C45.69 27.21, 50.12 19.81, 69.03 -0.35 M44.32 35.92 C48.62 26.92, 58.8 17.05, 75.21 0.92 M43.04 35.35 C55.37 22.31, 65.48 9.72, 73.43 0.04 M49.67 35.63 C56.99 26.98, 62.99 19.47, 79.3 -0.63 M49.99 35.17 C59.13 23.14, 70.91 9.73, 80.12 0.89 M55.2 36.08 C63.65 25.94, 69.4 17.23, 83.73 4.4 M54.25 36.03 C63.1 24.35, 72.08 14.7, 82.12 2.85 M60.71 35.91 C67.69 28.75, 75.42 20.49, 83.29 8.82 M59.09 36.08 C64.81 28.97, 71.44 21.13, 82.72 7.71 M65.8 34.94 C70.47 29.23, 73.87 22.54, 81.23 13.64 M65.35 35.34 C69.54 29.85, 74.03 22.41, 82.43 15.15 M69.94 34.45 C74.75 28.51, 80.28 26.28, 83.93 21.79 M70.52 35.01 C73.2 31.71, 76.54 27.17, 82.7 19.52 M75.21 34.44 C76.48 32.08, 78.42 31.54, 81.74 26.61 M75.91 35.17 C78.65 32.29, 81.2 28.71, 82.82 26.96" stroke="#868e96" stroke-width="0.5" fill="none"></path><path d="M-0.03 1.42 C23.06 -1.64, 49.2 1.6, 80.12 1.27 M-0.71 -0.03 C28.6 -0.16, 55.42 1.22, 79.23 -0.32 M81.8 1.4 C80.28 14.48, 78.73 25.75, 80.3 33.39 M79.92 -0.11 C80.22 9.81, 80.19 18.41, 80.41 34.91 M79.83 33.61 C61.47 35.16, 46.79 32.98, -1.48 35.34 M80.23 34.34 C50.49 34.64, 22.54 35.04, -0.61 35.06 M-1.44 33.71 C0.9 20.19, -1.09 10.16, -0.36 -0.2 M-0.87 34.55 C0.83 23, 0.06 11.39, 0.46 -0.15" stroke="#000000" stroke-width="1" fill="none"></path></g><g transform="translate(573.8195159704424 354.7075892241071) rotate(0 25.69969940185547 10.17628055933119)"><text x="25.69969940185547" y="0" font-family="Virgil, Segoe UI Emoji" font-size="16.2820488949299px" fill="#000000" text-anchor="middle" style="white-space: pre;" direction="ltr" dominant-baseline="text-before-edge">VALUE</text></g><g stroke-linecap="round" transform="translate(473.5 341.29780092835426) rotate(0 86.5 24)"><path d="M1 0.19 C61.62 -2.52, 127.07 0.04, 171.13 -1.26 M0.72 0.7 C60.29 1.45, 120.05 0.57, 173.88 -0.76 M172.46 -1.13 C171.83 14.96, 172.86 31.08, 173.97 48.75 M172.11 -0.16 C173.46 13.14, 172.91 25.64, 173.38 48.27 M174.2 48.9 C133.55 49.44, 93.85 47.57, 0.69 48.29 M173.71 48.63 C107.92 48.81, 42.86 50.08, -0.65 47.56 M0.5 48.55 C0.47 28.64, 0.83 14.57, -0.11 0.31 M-0.44 47.5 C0.04 35.43, -0.76 23.55, -0.84 -0.28" stroke="#000000" stroke-width="1" fill="none"></path></g><g transform="translate(657 356) rotate(0 26.03998565673828 12.5)"><text x="0" y="0" font-family="Virgil, Segoe UI Emoji" font-size="20px" fill="#000000" text-anchor="start" style="white-space: pre;" direction="ltr" dominant-baseline="text-before-edge">TAIL</text></g><g stroke-linecap="round" transform="translate(19.332784184514026 163.78336079077428) rotate(0 55.14827018121912 19.938220757825377)"><path d="M0 0 C0 0, 0 0, 0 0 M0 0 C0 0, 0 0, 0 0 M-0.71 6.88 C1.87 4.4, 2.33 1.92, 4.6 0.42 M-0.48 6.28 C0.62 5.16, 1.87 3.83, 5.27 0.03 M0.27 10.71 C3.99 7.15, 7.92 1.27, 10.55 0.75 M0.24 12.26 C3.82 8.55, 6.79 4.82, 9.84 0.64 M1.16 17.77 C3.75 10.96, 10.49 5.11, 14.42 1.56 M-0.01 17.81 C5.23 12.85, 10.69 5.58, 15.16 0.31 M0.38 24.93 C6.38 16.17, 12.78 9.32, 23.23 -1.82 M0.87 23.35 C7.95 15.6, 13.87 7.39, 22.12 0.93 M-1.63 31.18 C6.47 24.51, 13.33 14.89, 27.65 0.83 M0.44 30.6 C6.87 22.71, 14.56 13.51, 26.39 -0.5 M-0.69 36.78 C7.96 29.81, 14.06 19.96, 32.82 1.7 M-1.25 35.9 C13.29 22.17, 25.21 8.16, 32.03 -0.25 M0.49 41.67 C12 26.84, 26.02 12.05, 35.08 -0.81 M0.79 41.94 C12.66 27.02, 27.07 12.7, 37.08 -0.68 M8.36 41.73 C14.98 31.37, 21.49 24.08, 41.2 1.86 M5.46 41.1 C18.32 28.42, 27.25 16.46, 41.8 0.72 M13.25 42.56 C21.4 29.71, 33.46 14.28, 49.12 0.49 M11.34 40.2 C25.17 26.19, 38.91 10.64, 48.41 0.44 M16.63 39.42 C24.24 32.41, 35.89 21.11, 51.24 0.03 M16.89 41.43 C30.33 25.07, 45.62 8.86, 53.35 -0.21 M22.38 41.76 C34.68 26.02, 49.07 11.56, 59.15 -0.39 M22.83 41.9 C37.28 25.01, 49.27 9.2, 59.04 0.06 M29.58 41.22 C38.94 31.82, 44.97 17.92, 62.86 0.56 M27.8 40.61 C36.2 31.18, 45.45 22.28, 64.12 -0.6 M31.75 39.63 C42.11 29.39, 54.41 19.48, 67.57 -1.61 M32.69 41.48 C42.07 29.73, 51.76 18.66, 69.18 -0.11 M37.6 41 C49.1 30.66, 55.79 18.28, 72.92 -1.19 M38.35 40.34 C47.51 31.53, 57.72 19.83, 75.03 0.49 M42.27 39.54 C55.88 27.63, 68.41 13.4, 77.76 1.7 M43.85 39.89 C56.65 25.29, 69.94 9.68, 78.48 0.11 M48.09 39.62 C58.2 30.51, 67.09 20.56, 83.34 1.14 M48.23 40.8 C60.9 28.6, 70.61 15.16, 84.52 0.51 M55.83 39.84 C65.95 28.09, 72.78 18.7, 90.11 1.39 M54.75 40.58 C65.26 28.23, 75.95 17.07, 90.14 -0.58 M61.43 40.94 C71.13 25.91, 84.38 9.87, 96.98 0.91 M58.63 40.69 C71.33 27.27, 82.42 14.25, 96.52 -0.59 M63.3 41.89 C73.73 28.31, 84.16 20.52, 102.03 0.33 M65.31 41.48 C74.88 28.79, 85.66 16.84, 100.83 1.01 M71.01 39.82 C82.11 29.27, 94.35 15.86, 105.76 -1.52 M70.21 41.22 C80.46 30.52, 89.97 19.07, 106.45 -0.37 M76.59 42.05 C85.23 31.39, 94.73 19.99, 111.23 1.13 M74.96 41.05 C83.61 30.81, 93.54 21.1, 110.07 1.34 M79.23 42.11 C91.3 30.05, 99.54 20.54, 112.64 8 M81.16 42.07 C91.35 27.88, 102.34 16.25, 111.34 6.91 M84.58 39.69 C92.5 33.59, 99.11 27.53, 111.93 11.21 M86.63 40.23 C94.51 31.41, 101.13 24.11, 110.37 13.17 M93.47 40.68 C100.13 31.35, 107.93 24.63, 112.84 18.32 M91.16 41.44 C96.63 34.68, 102.44 28.36, 110.93 19.18 M96.51 41.91 C100.53 33.5, 106.12 28.67, 110.35 23.11 M96.09 41.22 C100.18 37.16, 104.32 33.6, 110.74 23.87 M102.12 39.97 C103.42 37.52, 106.4 35.93, 109.69 30.62 M101.64 41.69 C104.51 38.2, 107.99 35.22, 110.93 31.65 M107.54 41.17 C108.42 40.1, 109.94 37.22, 111.29 36.53 M106.94 41.13 C108.56 39.66, 109.67 38.24, 111.28 36.82" stroke="#fab005" stroke-width="0.5" fill="none"></path><path d="M-1.51 -1.55 C43.21 -2, 87.59 -1.62, 109.42 0.27 M0.01 -0.58 C35.77 0.37, 72.16 1.19, 110.52 -0.35 M109.89 0.22 C107.93 7.42, 109.99 16.4, 109.69 40.13 M111.15 0.43 C110.75 8.31, 110.9 16.9, 109.45 40.39 M108.55 38.37 C83.48 38.56, 58.32 39.08, -0.13 38.72 M110.06 40.17 C75.13 39.88, 38.3 39.67, -0.63 39.24 M-0.71 41.83 C0.82 31.82, 0.46 23.29, -0.31 -0.55 M-1 40.6 C0.06 23.74, -0.75 8.65, -0.53 -0.92" stroke="#000000" stroke-width="1" fill="none"></path></g><g transform="translate(59.42318540821361 173.2740252608457) rotate(0 15.057868957519531 10.447556287753969)"><text x="15.057868957519531" y="0" font-family="Virgil, Segoe UI Emoji" font-size="16.716090060406362px" fill="#000000" text-anchor="middle" style="white-space: pre;" direction="ltr" dominant-baseline="text-before-edge">KEY</text></g><g stroke-linecap="round" transform="translate(130.47775947281718 161.23805601317957) rotate(0 75.93492586490942 21.21087314662273)"><path d="M0 0 C0 0, 0 0, 0 0 M0 0 C0 0, 0 0, 0 0 M-1.02 5.84 C1.21 4.29, 2.73 1.97, 5.11 -0.08 M-0.29 6.32 C1.48 4.42, 2.98 3.36, 4.84 0.39 M-0.17 10.63 C2.34 10.22, 4.48 7.77, 9.86 0.18 M0.85 11.69 C2.66 8.78, 7.19 4.74, 9.96 0.48 M0 17.2 C2.99 14.96, 9.15 8.12, 14.47 0.55 M-0.03 17.74 C3.15 14.06, 7.76 10.73, 16.56 0.38 M-1.34 26.02 C9.52 14, 15.6 8.3, 20.1 1.15 M-0.41 23.82 C5.74 19.68, 9 13.58, 21.34 -0.88 M1.01 29.21 C10.14 20.74, 16.98 8.13, 26.14 1.16 M-0.04 29.95 C8.53 20.14, 15.76 11.55, 26.57 0.07 M0.09 36.15 C9.93 27.59, 20.32 13.02, 30.6 -2.08 M-0.29 36.9 C6.15 29.41, 12.87 22.01, 32.86 -0.59 M0.77 41.4 C10.88 27.39, 25.98 15.99, 38.68 -1.07 M1.07 43.3 C15.18 24.72, 28.5 8.93, 36.82 1.22 M5 42.96 C15.5 31.44, 28.76 15.81, 42.05 -2.09 M4.14 42.97 C14.2 32.17, 25.2 20.18, 43.27 0.45 M10.68 41.05 C26.58 26.46, 40.38 8.47, 47.51 -1.27 M10.73 42.66 C20.05 33.13, 26.93 24.38, 47 0 M16.12 44.08 C21.88 33.95, 33.32 25.34, 52.34 -0.52 M15.89 43 C27.93 29.49, 39.94 16.35, 53.01 -0.34 M22.11 42.6 C35.1 27.51, 48.22 13.14, 57 0.42 M20.87 41.53 C36.43 25.83, 49.71 9.18, 58.27 1.13 M24.6 41.39 C36.16 30.56, 46.93 17.02, 64.37 -0.01 M26.9 43.71 C35.42 32.51, 43.46 23.64, 64 -1 M33.97 43.39 C39.64 30.73, 48.85 21.95, 68.54 -1.15 M31.43 41.88 C45.93 27.17, 58.27 12.93, 69.34 -0.21 M35.81 41.76 C45.92 29.4, 57.2 16.69, 74.03 -0.19 M37.86 42.3 C45.48 34.34, 53.17 25.65, 73.67 -1.09 M42.14 43.8 C49.66 33.91, 61.42 22.09, 80.53 -0.11 M41.82 42.14 C49.49 33.83, 57.32 26.06, 80.36 -0.31 M48.16 43.04 C54.02 34.72, 64.1 23.26, 86.2 -1.72 M46.93 42.47 C56.42 32.36, 66.35 20.63, 84.96 0.34 M51.52 43.18 C62.26 33.33, 71.49 21.8, 88.36 0.38 M52.99 43.26 C63.52 30.25, 74.14 20.19, 91.02 1.01 M57.03 42.1 C70.61 31.52, 80.5 17.91, 94.78 -2.23 M57.8 42.41 C68.42 31.95, 76.56 21.36, 96.3 -1.28 M63.99 43.89 C78.5 27.89, 90.13 13.61, 100.42 0.2 M63.36 42.69 C77.93 27.67, 91.35 11, 100.51 0.45 M70.82 42.8 C76.91 31.33, 85.5 23.75, 106.66 -0.36 M69.64 42.81 C80.1 29.32, 91.14 16.64, 105.61 0.02 M74.44 43.29 C88.53 26.99, 100.31 11.11, 110.09 -1.79 M74.85 42.37 C86.46 29.04, 99.24 13.76, 111.5 -0.79 M78.92 43.99 C93.85 29.48, 106.26 12.25, 117.07 0.99 M79.15 42.87 C94.54 26.71, 108.01 10.07, 115.66 -0.58 M86.77 41.74 C95.33 30.33, 103.32 19.87, 123.78 0.25 M84.91 42.74 C93.77 32.29, 104.18 22.15, 122.17 0.98 M91.71 43.54 C101.85 30.85, 109.86 19.58, 128.22 -0.3 M90.49 42.29 C102.29 29.24, 115.78 13.65, 126.71 0.36 M93.87 42.59 C107.5 27.08, 118.96 16.1, 132.86 -0.8 M96.46 42.75 C105.76 29.56, 115.63 17.96, 132.2 -0.04 M100.59 42.3 C107.6 32.76, 117.42 23.57, 137.34 -1.15 M101.35 43.26 C116.07 26.27, 131.14 9.31, 138.52 1.05 M105.63 40.22 C116.91 29.79, 126.38 18.89, 141.73 -1.09 M105.92 41.85 C114.63 33.6, 120.5 24.36, 142.77 0.84 M109.95 44.13 C122.39 28.9, 132.97 16.39, 147.31 -0.18 M110.9 42.48 C122.62 30.47, 134.75 17.35, 149.02 -0.57 M116.28 44.73 C126.27 33.17, 135.8 18.24, 155.13 -1.01 M116.58 42.74 C127.03 31.7, 136.67 20.08, 153.9 1.57 M121.17 43.9 C128.55 34.92, 137.71 24.72, 152.14 5.76 M121.83 43.14 C129.6 34.56, 135.51 26.5, 153.74 6.73 M127.02 42.97 C135.26 33.47, 145.59 24.46, 153.6 12.63 M127.17 42.35 C136.14 32.37, 147.38 20.76, 151.94 13.18 M132.66 43.45 C139.57 37.16, 141.6 29.08, 154.01 18.52 M132.32 42.94 C139.6 33.18, 146.24 26.29, 152.92 18.39 M138.1 43.06 C143.8 34.91, 147.57 29.79, 151.69 23.85 M137.98 42.38 C141.53 37.75, 145.93 33.24, 153.71 25.01 M143.67 43.36 C145.86 39.09, 149.19 35.07, 151.85 31.15 M143.86 42.16 C145.62 39.53, 147.22 38.12, 153.47 30.71 M147.98 42.99 C149.38 41.03, 150.57 40.63, 152.98 37.42 M147.99 42.61 C150.08 41.22, 151.76 39.2, 153.19 37.17" stroke="#ced4da" stroke-width="0.5" fill="none"></path><path d="M1.48 -0.77 C32.89 1.15, 68.1 1.73, 149.98 0.02 M-0.35 0.15 C36.91 0.67, 72.51 0.03, 151.28 -0.2 M151.96 -0.71 C150.84 13.45, 149.79 27.09, 150.02 44.13 M152.34 -0.38 C151.16 15.08, 151.32 28.14, 151.84 41.55 M150.92 41.66 C117.62 40.3, 84.13 40, 1.06 41.96 M151.36 41.63 C101.23 40.9, 51.04 40.54, -0.99 42.07 M0.06 43.32 C-0.4 25, 1.51 10.08, -1.13 -1.99 M-0.47 41.49 C-0.67 25.72, 0.02 10.48, -0.3 0.67" stroke="#000000" stroke-width="1" fill="none"></path></g><g transform="translate(138.88084787434764 171.9555969312654) rotate(0 67.5318374633789 10.4933322285369)"><text x="67.5318374633789" y="0" font-family="Virgil, Segoe UI Emoji" font-size="16.789331565659037px" fill="#000000" text-anchor="middle" style="white-space: pre;" direction="ltr" dominant-baseline="text-before-edge">NODE POINTER</text></g><g stroke-linecap="round" transform="translate(10.848434925864922 151.9052718286656) rotate(0 139.99176276771004 31.81630971993411)"><path d="M-1.45 0.02 C86.91 -1.66, 174.59 -1.46, 280.21 0.34 M-0.45 -0.15 C74.25 1.38, 147.89 2.17, 279.71 -0.23 M278.13 1.71 C280.32 20.52, 278.8 40.72, 279.23 61.94 M279.95 -0.87 C278.79 21.72, 278.91 44.27, 279.6 63.57 M280.8 63.28 C212.57 62.97, 143.36 61.3, -1.22 62.67 M279.22 63.36 C214.55 61.65, 147.87 61.52, 0.34 63.51 M-1.13 61.64 C0.93 46.99, -2.49 28.03, -1.86 -1.05 M-0.3 64.31 C-0.85 51.05, 0 36.51, 0.64 0.91" stroke="#000000" stroke-width="1" fill="none"></path></g><g stroke-linecap="round" transform="translate(20.181219110378947 229.11285008237235) rotate(0 55.14827018121912 19.938220757825377)"><path d="M0 0 C0 0, 0 0, 0 0 M0 0 C0 0, 0 0, 0 0 M0.45 6.89 C0.87 4.81, 1.98 2.97, 4.87 0.21 M-0.32 6.63 C0.66 5.15, 2.07 4.19, 4.94 0.72 M0.73 13.23 C1.6 9.89, 5.09 4.74, 9.43 0.07 M0.44 11.73 C2.24 9.19, 4.7 6.2, 10.99 0.04 M0.71 20.33 C5.46 14.39, 8.04 9.28, 16.15 -1.28 M0.3 18.85 C5.37 11.99, 11.46 4.78, 15.28 -0.35 M-1 24.82 C5.97 15.63, 12.26 11.01, 22.46 0.94 M-0.01 23.1 C5.01 18.74, 10.16 12.01, 21.7 -0.12 M-1.64 30.58 C7.1 22.78, 12.86 16.99, 27.32 0.64 M0.92 29.56 C6.14 21.29, 12.72 14.96, 25.81 0.26 M0.49 36.74 C11.33 24.8, 19.76 13.17, 31.81 0.53 M0.27 37.68 C8.83 27.36, 16.7 18.02, 32.61 0.83 M-0.36 40.75 C14.66 27.84, 28.54 11.43, 35.56 0.14 M1.47 41.04 C12.26 27.29, 23 16.86, 36.39 -0.73 M6.57 42.62 C19.39 29.4, 30.63 14.1, 44.02 -0.23 M7.18 40.52 C14.34 31.1, 21.81 21.85, 42.98 -0.18 M11.29 42.69 C21.92 27.54, 32.26 13.17, 49.22 0.59 M13.03 41.16 C24.87 26.04, 38.18 10.57, 47.48 0.36 M18.32 41.62 C28.08 27.92, 40.56 14.33, 52.97 0.54 M17.87 41.06 C27.37 28.8, 39.99 16.91, 52.53 -0.7 M21.99 40.85 C29.99 34.38, 37.02 25.71, 59.66 -1.6 M22.1 40.92 C31.3 31.58, 38.42 22.03, 58.03 0.71 M27.17 42.66 C42.07 23.66, 54.43 8.4, 63.5 1.73 M27.37 41.02 C40.42 26.49, 53.69 11.83, 63.44 -0.81 M32.58 42.12 C43.04 30.24, 50.37 22.48, 69.25 -1.05 M32.87 40.25 C42.27 30.95, 50.35 20.55, 69.48 0.99 M39.48 43.14 C45.71 28.81, 54.97 19.64, 75.48 -0.76 M39.1 41.08 C52.62 25.47, 64.45 9.43, 74.41 -1.08 M42.94 42.39 C56.04 28.77, 62.29 18.99, 79.33 0.63 M44.05 40.57 C56.06 27.06, 66.2 15.64, 79.77 -0.6 M48.6 41.43 C58.86 30.85, 67.86 19.68, 83.76 -2.05 M49.02 41.4 C60.43 26.97, 73.32 12.52, 84.63 -0.58 M55.92 42.56 C70.42 26.96, 82.04 7.86, 90.28 -1.16 M54.83 40.82 C63.45 28.67, 72.94 18.72, 89.35 -0.4 M58.9 40.93 C70.23 28.16, 79.81 17.92, 94.22 -0.24 M59.58 41.69 C72.85 25.51, 87.31 8.96, 95.8 -0.87 M65.37 40.5 C76.83 27.5, 87.74 13.7, 101.46 1.97 M64.9 41.43 C76.37 28.52, 87.1 16.91, 101.16 0.79 M69.73 42.04 C80.09 28.88, 94.08 15.1, 107.7 -0.45 M69.71 41.1 C82.14 25.65, 95.67 11.06, 106.12 -0.04 M76.16 39.12 C87.24 26.6, 98.54 16.52, 110.55 0.15 M76.46 40.33 C88.72 26.1, 102.05 10.56, 110 0.38 M79.45 42.14 C89.28 27.84, 99.22 19.08, 110.16 8.01 M80.87 40.34 C89.86 31.97, 96.72 22.76, 110.37 6.14 M88.16 42.3 C95.58 32.88, 103.16 22.42, 109.75 14.36 M86.21 40.94 C95.33 30.75, 103.43 21.24, 110.62 13.13 M93.42 39.63 C96.43 34.91, 102.57 26.99, 109.77 16.52 M91 41.56 C97.98 33.67, 103.87 26.96, 111.07 19.1 M95.55 39.7 C100.91 35.73, 105.05 28.38, 109.25 24.65 M96.67 40.95 C100.62 36.04, 105.82 31.42, 111.32 25.4 M103.35 41.6 C106.49 38.35, 107.81 33.31, 111.74 30.72 M102.39 40.67 C103.32 38.8, 104.89 37.34, 110.12 30.91 M106.62 40.9 C107.87 40.77, 109.18 39.4, 111.44 36.45 M107.03 41.38 C108.46 39.64, 110.08 37.71, 111.03 36.74" stroke="#fab005" stroke-width="0.5" fill="none"></path><path d="M-1.71 -1.99 C33.54 -0.02, 69.65 -1.59, 109.15 0.09 M-0.83 0.34 C28.23 0.72, 58.74 0.17, 109.97 0.47 M108.92 -2 C109.9 8.7, 108.45 19.6, 109.01 38.93 M110.54 -0.72 C110.8 10.2, 110.56 21.45, 109.71 39.37 M108.68 37.88 C83.98 38.46, 63.59 39.59, 0.69 39.94 M111.09 40.58 C71.71 38.58, 34.97 39.92, -0.99 39.41 M0.33 39.11 C-0.4 32.98, -1.29 24.67, 0.22 -1.36 M-0.97 39.56 C-0.66 24.77, -0.02 10.08, 0.79 0.01" stroke="#000000" stroke-width="1" fill="none"></path></g><g transform="translate(60.271620334078534 238.60351455244376) rotate(0 15.057868957519531 10.447556287753969)"><text x="15.057868957519531" y="0" font-family="Virgil, Segoe UI Emoji" font-size="16.716090060406362px" fill="#000000" text-anchor="middle" style="white-space: pre;" direction="ltr" dominant-baseline="text-before-edge">KEY</text></g><g stroke-linecap="round" transform="translate(131.326194398682 226.56754530477758) rotate(0 75.93492586490936 21.21087314662273)"><path d="M0 0 C0 0, 0 0, 0 0 M0 0 C0 0, 0 0, 0 0 M-0.93 6.32 C1.54 4.06, 2.85 1.98, 5.38 0.25 M-0.15 6.77 C1.61 4.58, 3.36 1.66, 5.32 0.51 M-0.4 11 C2.96 7.56, 7.09 1.98, 11.61 0.58 M-0.37 12.01 C3.3 8.95, 5.12 5.36, 10.62 0.3 M0.72 17.6 C6.45 9.68, 14.07 6.1, 13.86 1.18 M-0.86 19.03 C5.01 11.49, 10.45 6.86, 16.61 -0.31 M0.97 24.45 C8.52 17.12, 13.13 9.38, 21.8 -0.62 M0.39 23.49 C4.96 19.06, 8.24 14.38, 20.47 -0.89 M-0.09 31.72 C8.99 21.68, 15.19 13.05, 28.05 2.12 M-0.98 31.11 C5.21 24.43, 11.13 18.33, 26.1 0.66 M0.41 35.45 C8.73 26.82, 17.12 13.55, 30.82 0.96 M0.67 35.9 C12.36 23.94, 24.67 9.14, 30.95 -1.01 M0.5 43.45 C9.39 29.91, 21.34 16.57, 38.88 0.3 M-0.13 43.51 C10.87 29.1, 22.56 16.58, 37.74 0.32 M6.71 41.59 C19.86 26.97, 30.48 13.08, 42.79 1.35 M4.35 42.37 C13.62 33.88, 21.37 25.57, 42.73 -0.53 M8.85 40.6 C26.87 26.63, 40.57 8.04, 47.71 2.12 M10.87 41.58 C22.61 29.24, 34.48 15.85, 47.47 0.85 M16.57 42.02 C27.39 30.1, 39.47 16.88, 52.57 1.44 M16.71 43.82 C25.57 30.55, 35.48 20.25, 53.02 -0.53 M21.32 44.15 C33.72 27.82, 41.63 16.2, 58.9 -1.04 M20.71 42.33 C32.1 30.35, 44.04 17.59, 57.74 -0.07 M25.11 42.16 C39.77 29.21, 54.79 10.24, 62.02 -0.87 M26.96 41.97 C36.26 30.75, 46.24 20.06, 63.51 -0.59 M31.76 43.98 C45.52 26.1, 57.28 10.57, 67.82 -0.78 M31.1 42.18 C41.41 33.37, 48.82 23.27, 69.5 0.73 M35.68 42.4 C53.11 25.65, 68.17 7.61, 75.99 1.3 M36.04 42.01 C47.27 29.91, 57.53 17.75, 74.4 -0.76 M41.05 42.98 C56.01 27.16, 70.19 9.05, 80.81 0.28 M42.22 43.07 C52.69 30.53, 61.96 19.33, 80.19 -0.06 M46.64 44.13 C57.99 27.41, 71.68 15.95, 86.35 -0.15 M47.39 42.61 C59.45 28.75, 72.63 15.52, 84.37 0.38 M53.03 41.05 C67.3 24.46, 80.62 10.7, 91.25 0.54 M52.78 42.43 C63.76 29.61, 75.1 18.32, 89.75 -0.26 M59.36 41.75 C67.28 30.8, 81.03 19.76, 95.95 -0.33 M58.96 41.96 C71.5 27.11, 84.79 12.84, 96.63 -0.24 M62.58 43.07 C75.25 32.04, 85.05 17.54, 99.48 -0.61 M63.97 43.18 C77.67 27.72, 90.63 11.8, 100.63 -0.2 M70.19 42.64 C83.46 27.64, 95.93 13.54, 106.66 -1.35 M69.19 41.73 C79.98 30.67, 91.24 17.16, 106.88 -0.19 M75.53 42.93 C82.38 32.76, 91.8 25.8, 112.87 1.22 M75.49 41.76 C83.14 30.97, 93.41 20.86, 111.78 -0.68 M78.49 43.2 C91.81 29.76, 105.06 14.5, 114.67 0.42 M79.03 43.1 C86.59 33, 95.84 23.55, 116.64 1.21 M84.77 43.53 C97.96 27.43, 113.82 11.57, 121.79 -0.59 M85.52 42.1 C96.53 29.15, 108.13 15.06, 122.64 0.95 M90.62 40.82 C97.19 31.08, 107.29 22.88, 125.17 -0.61 M89.93 42.75 C102.74 28.75, 116.1 13.3, 125.93 -0.12 M94.14 40.76 C102.09 33.04, 111.27 22.83, 131.58 0.36 M96.77 41.62 C105.44 32.48, 114.88 21.84, 133.16 0.9 M99.95 41.88 C114.63 27.05, 123.52 14.3, 136.34 1.18 M99.83 42.87 C109.11 32.11, 118.39 23.33, 137.29 -0.48 M106.5 43.5 C115.8 31.36, 123.85 23.95, 142.6 -0.54 M106.44 41.25 C117.14 29.64, 127.6 17.85, 143.78 0.83 M110.82 41.78 C123.87 29.42, 136.01 16.05, 150.06 -0.31 M111.18 43.13 C118.45 33.78, 126.89 25.14, 148.4 0.54 M115.06 42.41 C126.46 27.91, 141.41 14.28, 153.57 1.86 M115.55 42.18 C124.82 33.46, 133.64 24.94, 152.79 0.68 M122.6 40.9 C129.51 34.94, 135.14 26.93, 153.28 8.6 M122.92 42.71 C131.95 30.34, 142.95 17.07, 153.58 7.67 M126 42.85 C134.88 32.76, 145.86 24.5, 153 12.26 M127.62 42.84 C132.61 36.55, 137.82 30.55, 151.8 12.45 M133.65 40.65 C140.28 34.52, 147.73 26.32, 151.16 18.3 M132.49 42.29 C137.89 37.02, 142.66 30.39, 152.81 18.83 M138.5 41.49 C141.23 37.92, 148.22 30.8, 153.4 24.24 M136.68 43.39 C142.46 37.97, 147.16 32.18, 151.9 25.49 M141.82 43.16 C146.7 38.08, 150.15 35.43, 151.66 32.07 M143.71 42.15 C145.54 38.44, 148.73 36.05, 153.71 31.53 M148 42.94 C149.15 41.45, 151.98 38.67, 153.45 37.65 M148.18 42.79 C149.56 41.68, 150.54 40.71, 152.89 37.76" stroke="#ced4da" stroke-width="0.5" fill="none"></path><path d="M0.22 -1.97 C29.31 0.4, 60.2 -0.3, 152.12 -1.67 M0.43 0.31 C50.45 -0.83, 101.17 -2.14, 152.39 -0.69 M150.36 -1.31 C150.57 7.54, 151.09 16.84, 150.72 42.9 M152.16 0.58 C151.51 9.15, 151.3 18.69, 151.23 41.61 M153.83 42.84 C122.13 41.94, 91.91 41.57, -0.55 44.02 M152.59 42.77 C94.65 40.44, 38.49 40.38, -0.92 42.59 M-1.5 43.7 C0.35 29.96, 1.41 22.04, -1.37 -1.93 M0.35 41.67 C0.92 31.03, 0.4 19.27, 0.45 0.21" stroke="#000000" stroke-width="1" fill="none"></path></g><g transform="translate(139.72928280021245 237.2850862228634) rotate(0 67.53183746337885 10.4933322285369)"><text x="67.5318374633789" y="0" font-family="Virgil, Segoe UI Emoji" font-size="16.789331565659037px" fill="#000000" text-anchor="middle" style="white-space: pre;" direction="ltr" dominant-baseline="text-before-edge">NODE POINTER</text></g><g stroke-linecap="round" transform="translate(11.696869851729844 217.23476112026356) rotate(0 139.99176276771004 31.81630971993411)"><path d="M0.19 -1.28 C85.81 -0.77, 171.88 1.32, 280.46 -0.5 M0.4 -0.53 C96.29 1.79, 193.45 1.24, 279.48 -0.49 M278.83 0.48 C278.29 17.14, 279.27 32.73, 281.14 62.47 M279.35 -0.81 C278.48 14.85, 279.12 32.66, 280.19 63.98 M279.56 64.86 C196.21 62.44, 108.75 64.4, 0.53 62.11 M279.28 63.76 C208.75 62.27, 138.63 61.93, 0.49 63.72 M-1.37 61.7 C-1.03 48.29, -1.58 34.82, -1.51 1.58 M0.45 63.84 C0.17 45.25, -0.73 25.89, 0.59 -0.03" stroke="#000000" stroke-width="1" fill="none"></path></g><g stroke-linecap="round" transform="translate(21.02965403624387 292.74546952224057) rotate(0 55.14827018121912 19.938220757825377)"><path d="M0 0 C0 0, 0 0, 0 0 M0 0 C0 0, 0 0, 0 0 M-0.62 5.61 C2.49 4.27, 4.47 0.93, 5.5 0.09 M-0.51 6.16 C1.26 5.13, 2.09 3.33, 5.03 0.11 M-0.99 11.31 C3.16 9.12, 7.82 6.38, 10.72 0.64 M0.91 12.83 C2.11 9.35, 5.85 5.42, 11.12 -0.62 M-0.65 20.17 C7.58 10.78, 11.97 5.71, 13.99 1.03 M-0.76 19.14 C5.04 12.32, 8.8 6.78, 16.05 0.45 M-0.78 24.37 C3.65 16.61, 10.39 13.08, 20.83 -0.16 M-0.1 24.55 C8.64 16.21, 14.42 5.91, 20.27 -1.05 M0.04 30.77 C9.38 20.28, 19.05 10.51, 25.28 0.95 M-0.55 29.58 C5.48 24.03, 12.82 17.5, 25.59 1.22 M1.31 37.29 C4.11 27.27, 12.26 21.47, 33.81 0.26 M-0.22 36.21 C12.13 24.1, 22.29 11.03, 30.91 -0.37 M1.63 39.57 C17.5 25.24, 31.16 10.35, 38.05 1.84 M0.73 41.82 C9.63 32.17, 16.98 21.83, 36.13 -0.52 M6.78 43.17 C15.65 30.28, 25.91 19.72, 42.08 -2.06 M7.05 40.42 C13.61 33.7, 21.13 23.8, 42.35 -0.04 M12.39 41.38 C19.44 33.65, 27.21 23.57, 47.17 1.04 M12.15 41.48 C20.99 31.12, 30.17 19.2, 47.62 1.18 M15.23 43.15 C31.4 24.32, 45.89 8.83, 55.03 -0.25 M16.36 40.87 C31.02 25.07, 44.51 9.99, 53.25 -0.86 M24.51 41.62 C32.15 28.51, 44.49 17.75, 56.55 -1.09 M23.2 40.34 C31.35 29.38, 41.42 18.7, 57.49 0.76 M26.62 42.12 C35.1 31.8, 44.64 24.73, 63.06 -0.47 M27.19 40.56 C40.77 25.36, 54.22 9.94, 63.8 -1.14 M32.4 42.15 C44.31 30.49, 54.51 16.59, 67.07 -1.18 M34.05 40.09 C43.87 30.32, 52.84 18.66, 68.65 -0.83 M37.85 39.43 C46.36 31.27, 55.96 24.96, 73.54 -1.85 M38.48 40.42 C50.95 27.56, 61.85 14.37, 73.69 -0.68 M43.43 39.84 C58.48 25.73, 70.17 10.88, 80.62 -0.88 M44.39 40.92 C57.97 26.19, 70.58 10.24, 79.55 -0.14 M50.79 41.45 C58.14 30.75, 71.55 19.52, 86.88 -0.53 M48.66 41.89 C57.99 31.94, 65.84 21.51, 84.08 -0.78 M54 42.53 C65.24 27.75, 76.46 17.13, 88.1 1.17 M55.39 41.52 C63.97 30.54, 73.25 20.16, 90.11 0.76 M60.34 41.54 C69.57 32.21, 75.46 22.44, 96.47 -1.65 M59.65 40.93 C71.02 26.51, 84.41 13, 95.66 -0.26 M65.5 41.1 C78.69 24.27, 93.34 7.6, 101.39 1.33 M65.73 41.1 C75.7 28.15, 86.04 15.89, 99.75 0.33 M70.39 40.05 C78.85 32.84, 83.45 24.44, 104.68 0.64 M70.89 41.97 C83.03 28.07, 93.79 14.07, 106.61 0.6 M76.33 41.39 C85.74 29.57, 94.41 19.8, 108.72 -0.27 M75.61 41.35 C86.64 27.39, 98.06 15.17, 110.77 0.27 M81.84 40.34 C92.24 30.87, 103.52 17.7, 113.02 6 M81.32 41.97 C91.95 27.96, 103.22 16.26, 110.7 6.76 M85.87 40.28 C94.91 34.63, 98.92 24.33, 110.81 13.27 M86.68 40.46 C90.93 34.61, 97.37 29.36, 110.39 12.58 M92.56 40.78 C95.74 32.93, 102.13 26.02, 111.18 16.78 M91.34 40.37 C95.65 36.18, 100.11 30.72, 110.43 19.42 M97.85 42.36 C101.09 39.28, 104.17 35.35, 112.39 24 M95.49 41.89 C99.56 37.54, 103.38 31.98, 110.4 23.89 M101.69 42.14 C104.67 36.84, 106.68 34.1, 111.84 31.29 M102.63 41.1 C104.98 37.39, 108.2 33.66, 110.49 31.25 M107.06 41.29 C108.27 41.05, 108.82 40.07, 110.52 36.71 M107.37 41.39 C108.38 40.15, 108.88 39.35, 110.78 36.82" stroke="#fab005" stroke-width="0.5" fill="none"></path><path d="M-0.76 -1.69 C37.58 -1.89, 71.09 -0.58, 108.55 -1.51 M-0.38 -0.07 C25.31 0.76, 51.04 1.05, 110.06 0.29 M108.71 -1.26 C108.79 12.65, 108.07 26.56, 109.58 41.83 M110.74 -0.15 C110.16 13.59, 111.14 25.03, 109.3 40.6 M108.43 38.83 C71.57 39.69, 35.76 38.75, 1.35 38.38 M110.94 40.79 C69.45 38.16, 29.67 38.83, -0.58 40.22 M0.55 39.19 C0.58 31.35, 0.38 23.55, -1.11 1.21 M-0.7 39.39 C0.09 24.62, -0.09 11.41, -0.55 -0.28" stroke="#000000" stroke-width="1" fill="none"></path></g><g transform="translate(61.120055259943456 302.236133992312) rotate(0 15.057868957519531 10.447556287753969)"><text x="15.057868957519531" y="0" font-family="Virgil, Segoe UI Emoji" font-size="16.716090060406362px" fill="#000000" text-anchor="middle" style="white-space: pre;" direction="ltr" dominant-baseline="text-before-edge">KEY</text></g><g stroke-linecap="round" transform="translate(132.1746293245469 290.2001647446458) rotate(0 75.93492586490936 21.21087314662273)"><path d="M0 0 C0 0, 0 0, 0 0 M0 0 C0 0, 0 0, 0 0 M0.33 5.73 C1.26 4.9, 1.28 3.35, 5.04 -0.14 M-0.42 6.17 C1.01 4.68, 2.21 3.66, 5.03 0.08 M1.65 13.55 C2.89 9.61, 4.8 6.29, 9.35 1.52 M0.46 11.58 C4.91 6.6, 9.07 2.11, 10.09 -0.24 M0.61 18.61 C4.15 12.24, 12.22 5.74, 16.62 -0.94 M-1.11 18.38 C6.08 11.91, 10.88 5.52, 15.57 -0.2 M0.36 24.72 C6.63 16.56, 14.91 10.14, 21.61 -0.8 M-0.66 23.43 C6.33 14.54, 15.23 6.71, 21.23 -0.05 M-0.13 32.42 C7.33 21.56, 15.12 11.32, 26.88 -0.82 M0.81 31.38 C5.02 24.92, 10.23 18.37, 27.18 1.07 M-0.51 36.76 C12.31 25.68, 21.63 12.14, 31.77 -0.02 M-0.23 36.64 C5.91 27.96, 15.39 19.09, 30.9 -0.01 M1.39 44.02 C9.31 34.45, 15.23 24.74, 36.79 -1.18 M-0.71 42.52 C13.32 25.39, 27.53 10.54, 36.84 0.43 M6.84 41.86 C19.18 24.33, 32.32 11.19, 42.89 1.09 M5.31 42.48 C12.56 33.82, 19.49 24.89, 42.66 0.02 M11.05 42.19 C22.21 29.54, 33.47 15.02, 48.22 0.37 M10.49 41.92 C23.89 28.33, 37.63 11.92, 46.98 -0.7 M15.67 43.12 C32.3 26.09, 46.73 10.89, 51.36 -1.6 M15.73 43.14 C25.18 31.47, 34.45 21.13, 53.67 0.73 M22.76 42.88 C32.24 27.16, 45.44 14.04, 60.08 1.16 M21.12 42.34 C29.94 33.01, 38.56 21.94, 57.54 -0.35 M27.6 43.95 C38.52 28.03, 53.55 14.11, 62.58 -1.23 M25.72 42.62 C35.05 32.35, 43.23 24.28, 64.62 -0.68 M33.9 40.94 C43.33 25.56, 57.96 12.65, 68.25 1.57 M31.84 42.98 C39.59 31.94, 46.95 23.7, 67.93 -0.09 M38.54 44.7 C43.94 32.4, 53.19 24.99, 74.93 0.06 M36.71 43.36 C44.02 33.07, 53.47 24.64, 73.69 -0.51 M42.85 42.23 C52.67 30.95, 61.95 20.19, 77.62 0.95 M42.83 41.55 C53.71 29.24, 64.61 16.22, 79.1 1.03 M49.36 44.73 C61.41 28.86, 69.89 16, 83.8 -0.88 M47.63 42.3 C60.1 26.42, 74.81 10.52, 84.56 -0.58 M53.02 43.6 C65.61 27.3, 80.72 8.5, 90.09 1.66 M53.78 42.23 C66.84 27.46, 79.55 11.34, 89.46 0.46 M57.97 42.41 C70.51 27.7, 82.32 16.21, 97.59 -0.18 M58.9 42.89 C68.72 31.15, 79.81 19.86, 96.41 -0.17 M64.8 40.92 C76.22 30.39, 87.02 17.2, 100.55 1.06 M63.86 41.72 C75.06 28.84, 87.13 14.44, 100.96 0.14 M67.26 43.1 C76.17 33.1, 87.57 21.53, 105.68 1.01 M68.46 43.07 C83.12 27.01, 96.53 9.05, 105.91 -0.11 M75.56 41.06 C84.6 27.5, 99.24 13.68, 112.88 -0.49 M73.75 43.21 C88.18 26.63, 101.66 11.35, 111.02 0.51 M81.11 43.14 C90.95 30.91, 99.82 19.29, 117.82 1.31 M79.74 43.3 C93.36 26.85, 107.65 10.12, 116.6 0.06 M83.71 41.85 C95.1 30.64, 103.44 17.09, 119.98 0.37 M85.64 42.4 C95.19 30.66, 105.73 19.28, 122.56 0.52 M88.41 41.91 C101.04 29.09, 110.01 17.1, 126.7 0.07 M89.66 42.5 C98 33.88, 106.5 23.71, 127.46 1.03 M96.64 44.18 C109.73 26.42, 120.23 14.37, 131.74 -2.01 M95.21 41.49 C108.17 26.58, 121.59 12.24, 132.03 -0.38 M99.05 41.75 C116.82 26.74, 130.36 11.86, 136.06 1.9 M100.66 42.14 C111.91 29.75, 122.43 16.85, 137.01 0.25 M106.73 43.89 C114.74 29.44, 125.92 19.51, 143.04 1.75 M105.62 43.16 C115.85 29.81, 127.89 17.25, 143.35 -0.24 M111.93 44.04 C126.97 25.25, 138.37 9.17, 147.28 1.67 M110.66 42.16 C120.33 30.37, 129.88 20.2, 147.94 0.91 M114.72 44.59 C129.59 27.74, 142.22 12.64, 153.13 0.74 M116.91 43.38 C126.23 31.62, 137.14 18.18, 153.28 0.12 M122.94 41.12 C128.33 33.18, 135.84 24.98, 152.86 8.02 M121.1 42.99 C133.81 29.34, 146.15 15.34, 152.53 7.5 M128.31 42.65 C132.69 36.3, 138.99 27.73, 153.05 13.66 M126.57 42.33 C135.1 32.88, 144.33 23.12, 152.93 12.98 M132.97 44.37 C137.11 37.27, 141.96 29.35, 153.5 20.3 M132.9 41.6 C137.53 35.97, 142.96 31.12, 153.75 18.7 M138.24 43.67 C142.06 34.72, 149.41 30.88, 151.85 26.03 M137.62 42.95 C142.63 37.61, 147.29 30.54, 151.87 24.96 M143.75 43.71 C145.1 37.9, 150.21 33.39, 153.92 32.6 M142.7 43.17 C145.93 39.86, 147.18 38.52, 153.34 31.73 M148.51 43.05 C150.09 40.78, 151.12 38.17, 152.5 36.97 M148.63 42.49 C149.63 40.63, 151.39 39.21, 153.07 37.24" stroke="#ced4da" stroke-width="0.5" fill="none"></path><path d="M-2 -0.06 C30.98 -0.46, 64.15 -0.24, 150.92 -0.77 M-0.72 0.53 C44.3 -0.07, 89.65 -0.95, 151.36 -0.79 M149.88 -1.98 C150.89 12.02, 152.02 20.81, 151.93 43.32 M152.57 -0.56 C150.76 12.79, 152.1 23.15, 151.4 41.49 M151.1 41.81 C115.63 41.17, 77.98 42.89, -1.36 43.7 M151.56 42.13 C91.87 41.3, 32.28 41.75, 0.01 42.7 M0.7 43.99 C-1.3 32.35, 0.99 19.81, -1.89 -1.4 M-0.1 42.58 C-0.59 31.46, -0.53 21.11, -0.07 -0.19" stroke="#000000" stroke-width="1" fill="none"></path></g><g transform="translate(140.57771772607737 300.91770566273163) rotate(0 67.53183746337896 10.4933322285369)"><text x="67.5318374633789" y="0" font-family="Virgil, Segoe UI Emoji" font-size="16.789331565659037px" fill="#000000" text-anchor="middle" style="white-space: pre;" direction="ltr" dominant-baseline="text-before-edge">NODE POINTER</text></g><g stroke-linecap="round" transform="translate(12.545304777594765 280.8673805601318) rotate(0 139.99176276771004 31.81630971993411)"><path d="M-0.73 -0.59 C62.78 0.49, 126.14 0.27, 280.8 -0.36 M-0.39 -0.61 C91.72 0.76, 183.77 0.49, 279.22 -0.27 M280.04 0.89 C279.81 24.76, 281.71 52.03, 278.86 61.64 M279.52 -0.93 C279.68 22.74, 280.37 46.95, 279.68 64.31 M278.94 64.62 C218.36 62.81, 152.47 63.39, -0.45 62.74 M279.99 63.85 C186.02 65.67, 92.73 65.6, 0.6 63.21 M-1.89 62.23 C-1.34 40.86, -2.27 17.57, 0.31 -1.11 M-0.07 63.44 C1.03 45.52, 1.21 29.69, -0.37 0.09" stroke="#000000" stroke-width="1" fill="none"></path></g><g transform="translate(501 10) rotate(0 69.10994720458984 12.5)"><text x="0" y="0" font-family="Virgil, Segoe UI Emoji" font-size="20px" fill="#000000" text-anchor="start" style="white-space: pre;" direction="ltr" dominant-baseline="text-before-edge">LINKED LIST</text></g><g transform="translate(70 60) rotate(0 49.489959716796875 12.5)"><text x="0" y="0" font-family="Virgil, Segoe UI Emoji" font-size="20px" fill="#000000" text-anchor="start" style="white-space: pre;" direction="ltr" dominant-baseline="text-before-edge">HASH MAP</text></g><g stroke-linecap="round"><g transform="translate(283 117) rotate(0 93.77513005226228 71.14552602912423)"><path d="M0.22 -1.15 C68.27 51.9, 138.54 107.88, 186.9 143.3 M0.73 -0.11 C63.28 45.27, 124.15 93.56, 187.33 143.44" stroke="#000000" stroke-width="1" fill="none"></path></g><g transform="translate(283 117) rotate(0 93.77513005226228 71.14552602912423)"><path d="M159.1 132.68 C169.63 135.85, 181.51 143.03, 187.21 143.79 M159.71 133.91 C169.3 136.15, 177.47 140.37, 187.72 143.97" stroke="#000000" stroke-width="1" fill="none"></path></g><g transform="translate(283 117) rotate(0 93.77513005226228 71.14552602912423)"><path d="M171.81 116.56 C177.48 125.65, 184.67 138.79, 187.21 143.79 M172.41 117.8 C177.87 125.49, 181.83 135.05, 187.72 143.97" stroke="#000000" stroke-width="1" fill="none"></path></g></g><mask></mask><g stroke-linecap="round"><g transform="translate(280 188) rotate(0 93.43223153957933 -63.175566534023375)"><path d="M0.76 -0.13 C52.82 -34.98, 106.28 -69.97, 187.35 -126.64 M-0.48 0.29 C57.11 -38.37, 113.62 -76.17, 186.35 -125.64" stroke="#000000" stroke-width="1" fill="none"></path></g><g transform="translate(280 188) rotate(0 93.43223153957933 -63.175566534023375)"><path d="M169.66 -101.48 C172.25 -107.48, 177.11 -113.47, 186.75 -127.55 M168.2 -101 C174.6 -108.97, 180.12 -116.48, 185.59 -126.39" stroke="#000000" stroke-width="1" fill="none"></path></g><g transform="translate(280 188) rotate(0 93.43223153957933 -63.175566534023375)"><path d="M158.14 -118.47 C163.92 -119.59, 172.09 -120.71, 186.75 -127.55 M156.69 -117.98 C166.49 -120.88, 175.48 -123.27, 185.59 -126.39" stroke="#000000" stroke-width="1" fill="none"></path></g></g><mask></mask><g stroke-linecap="round"><g transform="translate(281 248) rotate(0 93.43945671216125 -42.09181160312116)"><path d="M-0.6 0.26 C72.66 -34.19, 143.62 -66.33, 186.53 -83.1 M-0.74 -0.71 C41.13 -16.7, 81.69 -35.04, 187.62 -84.45" stroke="#000000" stroke-width="1" fill="none"></path></g><g transform="translate(281 248) rotate(0 93.43945671216125 -42.09181160312116)"><path d="M165.69 -62.99 C176.03 -73.01, 183.77 -81.21, 187.09 -83.44 M165.53 -64.08 C171.11 -66.98, 175.27 -71.54, 188.31 -84.95" stroke="#000000" stroke-width="1" fill="none"></path></g><g transform="translate(281 248) rotate(0 93.43945671216125 -42.09181160312116)"><path d="M157.06 -81.6 C170.69 -84.57, 181.72 -85.68, 187.09 -83.44 M156.9 -82.7 C164.36 -81.46, 170.41 -81.94, 188.31 -84.95" stroke="#000000" stroke-width="1" fill="none"></path></g></g><mask></mask><g stroke-linecap="round"><g transform="translate(284 306) rotate(0 94.82547551393509 29.771794229745865)"><path d="M-0.8 0.86 C75.84 24.74, 147.04 46.85, 190.45 57.19 M-0.51 0.17 C74.56 23.15, 150.51 45.09, 189.86 59.37" stroke="#000000" stroke-width="1" fill="none"></path></g><g transform="translate(284 306) rotate(0 94.82547551393509 29.771794229745865)"><path d="M159.07 61.07 C173.3 61.67, 182.03 60.42, 190.32 57.57 M159.36 60.37 C171.58 60.43, 184.08 58.65, 189.73 59.74" stroke="#000000" stroke-width="1" fill="none"></path></g><g transform="translate(284 306) rotate(0 94.82547551393509 29.771794229745865)"><path d="M165.55 41.6 C177.23 49.81, 183.42 56.15, 190.32 57.57 M165.84 40.9 C175.3 48.71, 185.24 54.65, 189.73 59.74" stroke="#000000" stroke-width="1" fill="none"></path></g></g><mask></mask></svg>